<?xml version="1.0" encoding="UTF-8" standalone="no"?>
<svg
   xmlns:dc="http://purl.org/dc/elements/1.1/"
   xmlns:cc="http://creativecommons.org/ns#"
   xmlns:rdf="http://www.w3.org/1999/02/22-rdf-syntax-ns#"
   xmlns:svg="http://www.w3.org/2000/svg"
   xmlns="http://www.w3.org/2000/svg"
   xmlns:sodipodi="http://sodipodi.sourceforge.net/DTD/sodipodi-0.dtd"
   xmlns:inkscape="http://www.inkscape.org/namespaces/inkscape"
   version="1.1"
   id="svg28"
   xml:space="preserve"
   width="400.89334"
   height="239.73334"
   viewBox="0 0 400.89334 239.73334"
   sodipodi:docname="voodux.svg"
   inkscape:version="1.0.2 (e86c8708, 2021-01-15)"><metadata
     id="metadata34"><rdf:RDF><cc:Work
         rdf:about=""><dc:format>image/svg+xml</dc:format><dc:type
           rdf:resource="http://purl.org/dc/dcmitype/StillImage" /><dc:title></dc:title></cc:Work></rdf:RDF></metadata><defs
     id="defs32" /><sodipodi:namedview
     pagecolor="#ffffff"
     bordercolor="#666666"
     borderopacity="1"
     objecttolerance="10"
     gridtolerance="10"
     guidetolerance="10"
     inkscape:pageopacity="0"
     inkscape:pageshadow="2"
     inkscape:window-width="1813"
     inkscape:window-height="1035"
     id="namedview30"
     showgrid="false"
     inkscape:snap-text-baseline="true"
     inkscape:zoom="2.982219"
     inkscape:cx="193.78415"
     inkscape:cy="127.83214"
     inkscape:window-x="45"
     inkscape:window-y="23"
     inkscape:window-maximized="0"
     inkscape:current-layer="g36" /><g
     id="g36"
     inkscape:groupmode="layer"
     inkscape:label="ink_ext_XXXXXX"
     transform="matrix(1.3333333,0,0,-1.3333333,0,239.73333)"><path
       d="m 84.732,114.5 c 0,-3.7 0.4,-6.7 1.1,-8.9 0.8,-2.2 1.8,-4.6 3.2,-7.2 0.5,-0.8 0.7,-1.6 0.7,-2.3 0,-1 -0.6,-2 -1.9,-3 l -6.3,-4.2 c -0.9,-0.6 -1.8,-0.9 -2.6,-0.9 -1,0 -2,0.5 -3,1.4 -1.4,1.5 -2.6,3.1 -3.6,4.7 -1,1.7 -2,3.6 -3.1,5.9 -7.8,-9.2 -17.6,-13.8 -29.4,-13.8 -8.4,0 -15.1,2.4 -20,7.2 -4.9,4.8 -7.4,11.2 -7.4,19.2 0,8.5 3,15.4 9.1,20.6 6.1,5.2 14.2,7.8 24.5,7.8 3.4,0 6.9,-0.3 10.6,-0.8 3.7,-0.5 7.5,-1.3 11.5,-2.2 v 7.3 c 0,7.6 -1.6,12.9 -4.7,16 -3.2,3.1 -8.6,4.6 -16.3,4.6 -3.5,0 -7.1,-0.4 -10.8,-1.3 -3.7,-0.9 -7.3,-2 -10.8,-3.4 -1.6,-0.7 -2.8,-1.1 -3.5,-1.3 -0.7,-0.2 -1.2,-0.3 -1.6,-0.3 -1.4,0 -2.1,1 -2.1,3.1 v 4.9 c 0,1.6 0.2,2.8 0.7,3.5 0.5,0.7 1.4,1.4 2.8,2.1 3.5,1.8 7.7,3.3 12.6,4.5 4.9,1.3 10.1,1.9 15.6,1.9 11.9,0 20.6,-2.7 26.2,-8.1 5.5,-5.4 8.3,-13.6 8.3,-24.6 v -32.4 z m -40.6,-15.2 c 3.3,0 6.7,0.6 10.3,1.8 3.6,1.2 6.8,3.4 9.5,6.4 1.6,1.9 2.8,4 3.4,6.4 0.6,2.4 1,5.3 1,8.7 v 4.2 c -2.9,0.7 -6,1.3 -9.2,1.7 -3.2,0.4 -6.3,0.6 -9.4,0.6 -6.7,0 -11.6,-1.3 -14.9,-4 -3.3,-2.7 -4.9,-6.5 -4.9,-11.5 0,-4.7 1.2,-8.2 3.7,-10.6 2.4,-2.5 5.9,-3.7 10.5,-3.7 z m 80.3,-10.8 c -1.8,0 -3,0.3 -3.8,1 -0.8,0.6 -1.5,2 -2.1,3.9 l -23.5,77.3 c -0.6,2 -0.9,3.3 -0.9,4 0,1.6 0.8,2.5 2.4,2.5 h 9.8 c 1.9,0 3.2,-0.3 3.9,-1 0.8,-0.6 1.4,-2 2,-3.9 l 16.8,-66.2 15.6,66.2 c 0.5,2 1.1,3.3 1.9,3.9 0.8,0.6 2.2,1 4,1 h 8 c 1.9,0 3.2,-0.3 4,-1 0.8,-0.6 1.5,-2 1.9,-3.9 l 15.8,-67 17.3,67 c 0.6,2 1.3,3.3 2,3.9 0.8,0.6 2.1,1 3.9,1 h 9.3 c 1.6,0 2.5,-0.8 2.5,-2.5 0,-0.5 -0.1,-1 -0.2,-1.6 -0.1,-0.6 -0.3,-1.4 -0.7,-2.5 l -24.1,-77.3 c -0.6,-2 -1.3,-3.3 -2.1,-3.9 -0.8,-0.6 -2.1,-1 -3.8,-1 h -8.6 c -1.9,0 -3.2,0.3 -4,1 -0.8,0.7 -1.5,2 -1.9,4 l -15.5,64.5 -15.4,-64.4 c -0.5,-2 -1.1,-3.3 -1.9,-4 -0.8,-0.7 -2.2,-1 -4,-1 z"
       style="fill:#252f3e;fill-opacity:1;fill-rule:nonzero;stroke:none;stroke-width:0.1"
       id="path40"
       sodipodi:nodetypes="cccscsscccsssssscscsscsssssccscsccsscsscsssscsscccsssccccssscccccssssccsssscccsss" /><path
       d="M 28.838953,37.2 C 61.738953,12.9 109.53895,0 150.63895,0 c 57.6,0 109.5,21.3 148.69997,56.7 3.1,2.8 0.3,6.6 -3.4,4.4 -42.39997,-24.6 -94.69997,-39.5 -148.79997,-39.5 -36.5,0 -76.599997,7.6 -113.499997,23.2 -5.5,2.5 -10.2,-3.6 -4.8,-7.6 z m -13.7,15.6 c 4.2,5.4 27.8,2.6 38.5,1.3 3.2,-0.4 3.7,2.4 0.8,4.5 -18.8,13.2 -49.7000002,9.4 -53.3000002,5 -3.6,-4.5 1,-35.4 18.6000002,-50.2 2.7,-2.3 5.3,-1.1 4.1,1.9 -4,9.9 -12.9,32.2 -8.7,37.5"
       style="fill:#ff9900;fill-opacity:1;fill-rule:nonzero;stroke:none;stroke-width:0.1"
       id="path42" /><text
       xml:space="preserve"
       style="font-style:normal;font-weight:normal;font-size:148.553px;line-height:1.25;font-family:sans-serif;fill:#000000;fill-opacity:1;stroke:none;stroke-width:3.71383"
       x="172.96581"
       y="-109.74383"
       id="text48"
       transform="scale(1.265568,-0.79015907)"><tspan
         sodipodi:role="line"
         id="tspan46"
         x="172.96581"
         y="-109.74383"
         style="fill:#ff9955;stroke-width:3.71383">f</tspan></text></g></svg>
