<?xml version="1.0" encoding="UTF-8" standalone="no"?>
<svg
   xmlns:osb="http://www.openswatchbook.org/uri/2009/osb"
   xmlns:dc="http://purl.org/dc/elements/1.1/"
   xmlns:cc="http://creativecommons.org/ns#"
   xmlns:rdf="http://www.w3.org/1999/02/22-rdf-syntax-ns#"
   xmlns:svg="http://www.w3.org/2000/svg"
   xmlns="http://www.w3.org/2000/svg"
   xmlns:xlink="http://www.w3.org/1999/xlink"
   xmlns:sodipodi="http://sodipodi.sourceforge.net/DTD/sodipodi-0.dtd"
   xmlns:inkscape="http://www.inkscape.org/namespaces/inkscape"
   version="1.1"
   id="svg28"
   xml:space="preserve"
   width="400.89334"
   height="239.73334"
   viewBox="0 0 400.89334 239.73334"
   sodipodi:docname="voodux.svg"
   inkscape:version="1.0.2 (e86c8708, 2021-01-15)"
   inkscape:export-filename="/Users/admin/apps/voodux/docs/voodux.png"
   inkscape:export-xdpi="96"
   inkscape:export-ydpi="96"><metadata
     id="metadata34"><rdf:RDF><cc:Work
         rdf:about=""><dc:format>image/svg+xml</dc:format><dc:type
           rdf:resource="http://purl.org/dc/dcmitype/StillImage" /><dc:title></dc:title></cc:Work></rdf:RDF></metadata><defs
     id="defs32"><linearGradient
       id="linearGradient3450"
       osb:paint="solid"><stop
         style="stop-color:#000000;stop-opacity:1;"
         offset="0"
         id="stop3448" /></linearGradient><radialGradient
       fx="0"
       fy="0"
       cx="0"
       cy="0"
       r="1"
       gradientUnits="userSpaceOnUse"
       gradientTransform="matrix(174.58133,0,0,-174.58133,426.3256,103.08361)"
       spreadMethod="pad"
       id="radialGradient1125"><stop
         style="stop-opacity:1;stop-color:#41bda0"
         offset="0"
         id="stop1121" /><stop
         style="stop-opacity:1;stop-color:#266088"
         offset="1"
         id="stop1123" /></radialGradient><linearGradient
       inkscape:collect="always"
       xlink:href="#radialGradient1125"
       id="linearGradient3412"
       x1="16.953064"
       y1="-149.0778"
       x2="138.64056"
       y2="-149.0778"
       gradientUnits="userSpaceOnUse" /><linearGradient
       inkscape:collect="always"
       xlink:href="#radialGradient1125"
       id="linearGradient3460"
       x1="17.328064"
       y1="-149.0778"
       x2="138.26556"
       y2="-149.0778"
       gradientUnits="userSpaceOnUse" /></defs><sodipodi:namedview
     pagecolor="#ffffff"
     bordercolor="#666666"
     borderopacity="1"
     objecttolerance="10"
     gridtolerance="10"
     guidetolerance="10"
     inkscape:pageopacity="0"
     inkscape:pageshadow="2"
     inkscape:window-width="1726"
     inkscape:window-height="1009"
     id="namedview30"
     showgrid="false"
     inkscape:snap-text-baseline="true"
     inkscape:zoom="1.4254587"
     inkscape:cx="178.96257"
     inkscape:cy="127.83214"
     inkscape:window-x="38"
     inkscape:window-y="23"
     inkscape:window-maximized="0"
     inkscape:current-layer="g36" /><g
     id="g36"
     inkscape:groupmode="layer"
     inkscape:label="ink_ext_XXXXXX"
     transform="matrix(1.3333333,0,0,-1.3333333,0,239.73333)"
     style="display:inline"><text
       xml:space="preserve"
       style="font-style:normal;font-variant:normal;font-weight:bold;font-stretch:normal;font-size:36px;line-height:1.25;font-family:Baskerville;-inkscape-font-specification:'Baskerville, Bold';font-variant-ligatures:normal;font-variant-caps:normal;font-variant-numeric:normal;font-variant-east-asian:normal;fill:url(#linearGradient3460);fill-opacity:1.0;stroke:none;stroke-width:0.75;paint-order:stroke markers fill;stroke-opacity:0.64516127"
       x="17.539001"
       y="-137.23894"
       id="text2497"
       transform="scale(1,-1)"><tspan
         id="tspan2495"
         x="17.539001"
         y="-137.23894"
         style="font-style:normal;font-variant:normal;font-weight:bold;font-stretch:normal;font-size:36px;font-family:Baskerville;-inkscape-font-specification:'Baskerville, Bold';font-variant-ligatures:normal;font-variant-caps:normal;font-variant-numeric:normal;font-variant-east-asian:normal;stroke-width:0.75;paint-order:stroke markers fill;stroke:none;stroke-opacity:0.64516127;fill-opacity:1.0;fill:url(#linearGradient3460)"
         sodipodi:role="line">voodux</tspan></text><path
       d="m 174.656,103.35007 c 0,-0.296 -0.183,-0.546 -0.546,-0.753 -0.364,-0.206 -0.806,-0.309 -1.327,-0.309 -0.521,0 -0.964,0.103 -1.328,0.309 -0.363,0.207 -0.546,0.457 -0.546,0.753 0,0.285 0.183,0.535 0.546,0.752 0.374,0.206 0.816,0.309 1.328,0.309 0.511,0 0.953,-0.103 1.327,-0.309 0.363,-0.217 0.546,-0.467 0.546,-0.752"
       style="display:inline;fill:#21201f;fill-opacity:1;fill-rule:evenodd;stroke:none;stroke-width:0.1"
       id="path1195" /><path
       d="m 174.656,106.12207 c 0,-0.295 -0.183,-0.546 -0.546,-0.752 -0.364,-0.206 -0.806,-0.31 -1.327,-0.31 -0.521,0 -0.964,0.104 -1.328,0.31 -0.363,0.206 -0.546,0.457 -0.546,0.752 0,0.285 0.183,0.531 0.546,0.737 0.374,0.207 0.816,0.31 1.328,0.31 0.511,0 0.953,-0.103 1.327,-0.31 0.363,-0.206 0.546,-0.452 0.546,-0.737"
       style="display:inline;fill:#21201f;fill-opacity:1;fill-rule:evenodd;stroke:none;stroke-width:0.1"
       id="path1197" /><path
       d="m 196.705,62.938074 c -0.099,-0.216 -0.236,-0.369 -0.413,-0.457 -0.187,-0.099 -0.364,-0.108 -0.531,-0.029 -0.167,0.068 -0.276,0.206 -0.325,0.413 -0.058,0.206 -0.039,0.413 0.06,0.619 0.098,0.217 0.24,0.369 0.427,0.457 0.187,0.099 0.364,0.108 0.531,0.029 0.167,-0.078 0.275,-0.216 0.324,-0.412 0.05,-0.207 0.025,-0.413 -0.073,-0.62"
       style="display:inline;fill:#21201f;fill-opacity:1;fill-rule:evenodd;stroke:none;stroke-width:0.1"
       id="path1201" /><path
       d="m 194.64,59.989074 c -0.168,0.068 -0.275,0.206 -0.325,0.413 -0.049,0.206 -0.024,0.413 0.074,0.619 0.098,0.216 0.236,0.368 0.414,0.457 0.186,0.099 0.363,0.108 0.53,0.029 0.168,-0.078 0.28,-0.215 0.34,-0.413 0.049,-0.206 0.024,-0.412 -0.075,-0.619 -0.097,-0.216 -0.24,-0.369 -0.427,-0.457 -0.187,-0.099 -0.364,-0.108 -0.531,-0.029"
       style="display:inline;fill:#21201f;fill-opacity:1;fill-rule:evenodd;stroke:none;stroke-width:0.1"
       id="path1203" /><path
       d="m 193.534,63.411074 c -0.147,0.097 -0.227,0.25 -0.236,0.457 -0.01,0.216 0.049,0.418 0.176,0.604 0.138,0.187 0.305,0.31 0.502,0.368 0.206,0.05 0.383,0.025 0.532,-0.073 0.147,-0.108 0.225,-0.265 0.235,-0.472 0.01,-0.207 -0.049,-0.403 -0.177,-0.589 -0.137,-0.198 -0.309,-0.321 -0.516,-0.37 -0.197,-0.058 -0.369,-0.034 -0.516,0.075"
       style="display:inline;fill:#21201f;fill-opacity:1;fill-rule:evenodd;stroke:none;stroke-width:0.1"
       id="path1205" /><path
       d="m 192.93,62.569074 c 0.157,-0.108 0.24,-0.265 0.25,-0.472 0.009,-0.206 -0.054,-0.408 -0.192,-0.604 -0.128,-0.187 -0.295,-0.31 -0.501,-0.368 -0.197,-0.06 -0.369,-0.036 -0.516,0.073 -0.158,0.108 -0.242,0.265 -0.251,0.471 -0.01,0.208 0.054,0.409 0.192,0.605 0.138,0.187 0.305,0.311 0.501,0.369 0.196,0.049 0.369,0.025 0.517,-0.074"
       style="display:inline;fill:#21201f;fill-opacity:1;fill-rule:evenodd;stroke:none;stroke-width:0.1"
       id="path1207" /><path
       d="m 193.165,66.256074 c 0.128,-0.127 0.187,-0.295 0.177,-0.501 -0.02,-0.207 -0.108,-0.393 -0.265,-0.56 -0.157,-0.167 -0.34,-0.271 -0.546,-0.31 -0.207,-0.03 -0.379,0.02 -0.517,0.148 -0.127,0.128 -0.186,0.295 -0.176,0.501 0.019,0.207 0.108,0.393 0.265,0.56 0.158,0.167 0.339,0.266 0.546,0.295 0.216,0.04 0.388,-0.005 0.516,-0.133"
       style="display:inline;fill:#21201f;fill-opacity:1;fill-rule:evenodd;stroke:none;stroke-width:0.1"
       id="path1209" /><path
       d="m 191.233,63.218074 c -0.157,-0.167 -0.34,-0.27 -0.546,-0.309 -0.206,-0.03 -0.379,0.019 -0.516,0.147 -0.137,0.128 -0.197,0.295 -0.177,0.502 0.02,0.216 0.108,0.407 0.266,0.575 0.157,0.167 0.338,0.265 0.546,0.295 0.206,0.03 0.373,-0.02 0.5,-0.147 0.138,-0.128 0.203,-0.295 0.193,-0.502 -0.021,-0.206 -0.109,-0.394 -0.266,-0.561"
       style="display:inline;fill:#21201f;fill-opacity:1;fill-rule:evenodd;stroke:none;stroke-width:0.1"
       id="path1211" /><path
       d="m 190.776,67.672074 c 0.059,0.206 0.182,0.379 0.368,0.517 0.187,0.128 0.384,0.187 0.59,0.177 0.217,-0.01 0.374,-0.089 0.473,-0.237 0.107,-0.147 0.138,-0.319 0.088,-0.515 -0.059,-0.197 -0.182,-0.364 -0.368,-0.502 -0.188,-0.138 -0.389,-0.201 -0.606,-0.192 -0.206,0.01 -0.363,0.089 -0.472,0.237 -0.098,0.147 -0.123,0.319 -0.073,0.515"
       style="display:inline;fill:#21201f;fill-opacity:1;fill-rule:evenodd;stroke:none;stroke-width:0.1"
       id="path1213" /><path
       d="m 190.023,66.551074 c 0.109,-0.147 0.133,-0.319 0.074,-0.515 -0.058,-0.207 -0.181,-0.379 -0.369,-0.517 -0.186,-0.138 -0.382,-0.201 -0.589,-0.191 -0.216,0.009 -0.374,0.088 -0.472,0.235 -0.109,0.158 -0.133,0.335 -0.074,0.531 0.049,0.198 0.168,0.365 0.354,0.502 0.196,0.138 0.399,0.201 0.605,0.192 0.207,-0.01 0.364,-0.089 0.471,-0.237"
       style="display:inline;fill:#21201f;fill-opacity:1;fill-rule:evenodd;stroke:none;stroke-width:0.1"
       id="path1215" /><path
       d="m 119.2304,117.34607 c 1.5438,-1.091 2.4188,-2.458 2.6254,-4.1 0.1863,-1.436 -0.1426,-2.979 -0.9883,-4.631 l 0.0149,-0.015 c 0.2554,-0.423 0.4421,-1.052 0.5601,-1.888 0.1477,-1.111 -0.0539,-1.809 -0.6047,-2.094 -0.216,-0.108 -0.457,-0.059 -0.7226,0.147 -0.2852,0.226 -0.4231,0.516 -0.4125,0.87 l 0.0144,1.21 c -1.3765,-1.731 -3.1418,-3.033 -5.2949,-3.908 -2.3598,-0.944 -4.8031,-1.195 -7.3301,-0.753 1.2782,1.013 2.1782,2.016 2.6992,3.009 0.4422,0.826 0.6489,1.696 0.6196,2.611 -0.2364,-0.482 -0.418,-0.787 -0.5457,-0.915 -0.2461,-0.275 -0.5016,-0.477 -0.7672,-0.605 -0.3047,-0.137 -0.5801,-0.152 -0.8258,-0.044 -0.2266,0.098 -0.3637,0.31 -0.4129,0.634 -0.0594,0.344 0.034,0.639 0.2801,0.885 0.5996,0.6 0.9293,0.934 0.9883,1.003 0.4718,0.502 0.7715,0.885 0.8996,1.151 -0.2656,0.973 -0.4133,1.533 -0.4426,1.681 -0.1375,0.629 -0.1918,1.185 -0.1621,1.666 0.1965,2.645 1.6223,4.253 4.2769,4.823 1.0231,0.227 2.0797,0.256 3.1708,0.089 1.0128,-0.157 1.7996,-0.433 2.3601,-0.826"
       style="display:inline;fill:#f8fdfe;fill-opacity:1;fill-rule:evenodd;stroke:none;stroke-width:0.1"
       id="path1499" /><path
       d="m 119.2304,117.34607 c -0.5605,0.393 -1.3473,0.669 -2.3601,0.826 -1.0911,0.167 -2.1477,0.138 -3.1708,-0.089 -2.6546,-0.57 -4.0804,-2.178 -4.2769,-4.823 -0.0297,-0.481 0.0246,-1.037 0.1621,-1.666 0.0293,-0.148 0.177,-0.708 0.4426,-1.681 -0.1281,-0.266 -0.4278,-0.649 -0.8996,-1.151 -0.059,-0.069 -0.3887,-0.403 -0.9883,-1.003 -0.2461,-0.246 -0.3395,-0.541 -0.2801,-0.885 0.0492,-0.324 0.1863,-0.536 0.4129,-0.634 0.2457,-0.108 0.5211,-0.093 0.8258,0.044 0.2656,0.128 0.5211,0.33 0.7672,0.605 0.1277,0.128 0.3093,0.433 0.5457,0.915 0.0293,-0.915 -0.1774,-1.785 -0.6196,-2.611 -0.521,-0.993 -1.421,-1.996 -2.6992,-3.009 2.527,-0.442 4.9703,-0.191 7.3301,0.753 2.1531,0.875 3.9184,2.177 5.2949,3.908 l -0.0144,-1.21 c -0.0106,-0.354 0.1273,-0.644 0.4125,-0.87 0.2656,-0.206 0.5066,-0.255 0.7226,-0.147 0.5508,0.285 0.7524,0.983 0.6047,2.094 -0.118,0.836 -0.3047,1.465 -0.5601,1.888 l -0.0149,0.015 c 0.8457,1.652 1.1746,3.195 0.9883,4.631 -0.2066,1.642 -1.0816,3.009 -2.6254,4.1 z"
       style="display:inline;fill:none;stroke:#c0e8e9;stroke-width:0.5;stroke-linecap:round;stroke-linejoin:round;stroke-miterlimit:3;stroke-dasharray:none;stroke-opacity:1"
       id="path1501" /><path
       d="m 113.3902,112.09507 c -0.0496,-0.275 -0.1621,-0.487 -0.3395,-0.634 -0.1867,-0.147 -0.3785,-0.182 -0.5754,-0.103 -0.2062,0.069 -0.3636,0.231 -0.4715,0.487 -0.0988,0.245 -0.123,0.506 -0.0738,0.781 0.0488,0.285 0.1621,0.497 0.3391,0.634 0.1769,0.138 0.3683,0.173 0.575,0.104 0.1969,-0.079 0.3492,-0.241 0.4574,-0.487 0.1078,-0.236 0.1379,-0.497 0.0887,-0.782"
       style="display:inline;fill:#100f0d;fill-opacity:1;fill-rule:evenodd;stroke:none;stroke-width:0.1"
       id="path1503" /><path
       d="m 119.437,112.09507 c -0.0496,-0.275 -0.1625,-0.487 -0.3394,-0.634 -0.1867,-0.147 -0.3785,-0.182 -0.5754,-0.103 -0.2062,0.069 -0.3637,0.231 -0.4715,0.487 -0.0988,0.245 -0.123,0.506 -0.0738,0.781 0.0488,0.285 0.1621,0.497 0.3391,0.634 0.1769,0.138 0.3683,0.173 0.5753,0.104 0.1965,-0.079 0.3489,-0.241 0.4571,-0.487 0.1082,-0.246 0.1379,-0.506 0.0886,-0.782"
       style="display:inline;fill:#100f0d;fill-opacity:1;fill-rule:evenodd;stroke:none;stroke-width:0.1"
       id="path1505" /><path
       d="m 115.4695,109.24907 c -0.6489,0 -1.3028,0.157 -1.9614,0.472 -0.5425,0.323 -0.8546,0.505 -0.9371,0.546 1.2571,-0.57 2.5914,-0.747 4.0043,-0.532 0.7082,0.109 1.2883,0.271 1.7407,0.487 -0.1868,-0.167 -0.4473,-0.329 -0.7817,-0.487 -0.659,-0.324 -1.3469,-0.486 -2.0648,-0.486"
       style="display:inline;fill:#100f0d;fill-opacity:1;fill-rule:evenodd;stroke:none;stroke-width:0.1"
       id="path1507" /><path
       d="m 190.953,87.185074 0.413,-1.268 c 0.029,-0.099 0.098,-0.148 0.206,-0.148 h 1.327 c 0.109,0 0.178,-0.049 0.207,-0.147 0.03,-0.099 0.005,-0.178 -0.074,-0.236 l -1.076,-0.782 c -0.079,-0.069 -0.104,-0.152 -0.074,-0.251 l 0.413,-1.253 c 0.029,-0.098 0,-0.182 -0.088,-0.251 -0.089,-0.059 -0.172,-0.059 -0.251,0 l -1.077,0.781 c -0.078,0.069 -0.162,0.069 -0.25,0 l -1.077,-0.781 c -0.088,-0.059 -0.172,-0.059 -0.251,0 -0.088,0.059 -0.118,0.142 -0.088,0.251 l 0.413,1.253 c 0.029,0.099 0.005,0.182 -0.074,0.251 l -1.078,0.782 c -0.087,0.058 -0.117,0.137 -0.087,0.236 0.029,0.098 0.098,0.147 0.206,0.147 h 1.342 c 0.109,0 0.177,0.049 0.206,0.148 l 0.399,1.268 c 0.039,0.098 0.108,0.148 0.206,0.148 0.108,0 0.178,-0.05 0.207,-0.148"
       style="display:inline;fill:#cee526;fill-opacity:1;fill-rule:evenodd;stroke:none;stroke-width:0.1"
       id="path1559" /><path
       d="m 189.728,85.002074 c -0.097,0 -0.147,0.044 -0.147,0.133 0,0.098 0.055,0.147 0.163,0.147 0.107,0 0.162,-0.044 0.162,-0.133 0,-0.098 -0.059,-0.147 -0.178,-0.147"
       style="display:inline;fill:#cee526;fill-opacity:1;fill-rule:evenodd;stroke:none;stroke-width:0.1"
       id="path1561" /><path
       d="m 190.717,85.356074 c 0,-0.059 -0.02,-0.113 -0.059,-0.162 -0.01,-0.01 -0.01,0 0,0.029 l -0.074,-0.074 c -0.049,-0.039 -0.108,-0.048 -0.177,-0.029 -0.068,0.02 -0.113,0.059 -0.133,0.118 0,0.02 0.01,0.079 0.03,0.177 0.03,0.059 0.084,0.098 0.162,0.118 0.049,0.01 0.103,0 0.163,-0.03 0.049,-0.029 0.078,-0.078 0.088,-0.147"
       style="display:inline;fill:#cee526;fill-opacity:1;fill-rule:evenodd;stroke:none;stroke-width:0.1"
       id="path1563" /><path
       d="m 190.806,86.108074 c 0.019,0.02 0.048,0.025 0.087,0.015 0.04,-0.019 0.06,-0.044 0.06,-0.074 0,-0.039 -0.02,-0.059 -0.06,-0.059 -0.039,-0.009 -0.068,0 -0.087,0.03 h -0.015 c -0.03,0.029 -0.03,0.049 0,0.059 l 0.015,0.029"
       style="display:inline;fill:#cee526;fill-opacity:1;fill-rule:evenodd;stroke:none;stroke-width:0.1"
       id="path1565" /><path
       d="m 191.233,84.589074 c 0.148,0 0.206,-0.074 0.177,-0.221 -0.029,-0.138 -0.113,-0.206 -0.251,-0.206 -0.147,0 -0.206,0.068 -0.177,0.206 0.03,0.147 0.114,0.221 0.251,0.221"
       style="display:inline;fill:#cee526;fill-opacity:1;fill-rule:evenodd;stroke:none;stroke-width:0.1"
       id="path1567" /><path
       d="m 190.201,84.265074 c 0.049,0 0.073,-0.02 0.073,-0.059 0,-0.03 -0.024,-0.044 -0.073,-0.044 -0.04,0 -0.06,0.014 -0.06,0.044 0,0.039 0.02,0.059 0.06,0.059"
       style="display:inline;fill:#cee526;fill-opacity:1;fill-rule:evenodd;stroke:none;stroke-width:0.1"
       id="path1569" /><path
       d="m 191.557,85.223074 c 0.06,-0.039 0.08,-0.083 0.06,-0.132 l -0.016,-0.118 c -0.029,-0.128 -0.117,-0.182 -0.265,-0.162 -0.049,0.009 -0.088,0.039 -0.117,0.088 -0.031,0.049 -0.04,0.098 -0.031,0.147 l 0.031,0.089 c 0.039,0.108 0.117,0.152 0.235,0.133 0.04,0 0.074,-0.015 0.103,-0.045"
       style="display:inline;fill:#cee526;fill-opacity:1;fill-rule:evenodd;stroke:none;stroke-width:0.1"
       id="path1571" /><path
       d="m 127.7699,116.72707 0.4129,-1.269 c 0.0292,-0.098 0.0984,-0.147 0.2062,-0.147 h 1.3277 c 0.1078,0 0.1766,-0.05 0.2067,-0.148 0.0293,-0.098 0.005,-0.182 -0.0739,-0.251 l -1.0765,-0.782 c -0.0887,-0.068 -0.1184,-0.147 -0.0887,-0.235 l 0.4125,-1.269 c 0.0399,-0.098 0.0152,-0.182 -0.0734,-0.25 -0.0883,-0.06 -0.1719,-0.055 -0.2504,0.014 l -1.077,0.782 c -0.0785,0.049 -0.1621,0.049 -0.2507,0 l -1.0766,-0.782 c -0.0887,-0.069 -0.1723,-0.074 -0.2508,-0.014 -0.0883,0.059 -0.118,0.142 -0.0883,0.25 l 0.4125,1.269 c 0.0297,0.088 0.006,0.167 -0.0734,0.235 l -1.077,0.782 c -0.0882,0.069 -0.1175,0.153 -0.0882,0.251 0.0296,0.098 0.098,0.148 0.2066,0.148 h 1.3269 c 0.1086,0 0.1774,0.049 0.2067,0.147 l 0.4133,1.269 c 0.0394,0.098 0.1082,0.147 0.2062,0.147 0.1086,0 0.1774,-0.049 0.2067,-0.147"
       style="display:inline;fill:#973aa2;fill-opacity:1;fill-rule:evenodd;stroke:none;stroke-width:0.1"
       id="path1573" /><path
       d="m 126.5605,114.82407 c 0.098,0 0.1473,-0.049 0.1473,-0.148 0.01,-0.039 -0.005,-0.073 -0.0446,-0.103 -0.0387,-0.029 -0.0785,-0.044 -0.1176,-0.044 -0.1082,0 -0.1621,0.049 -0.1621,0.147 0,0.099 0.0586,0.148 0.177,0.148"
       style="display:inline;fill:#973aa2;fill-opacity:1;fill-rule:evenodd;stroke:none;stroke-width:0.1"
       id="path1575" /><path
       d="m 127.091,114.78007 c 0,0.01 0.0105,0.063 0.03,0.162 0.0293,0.059 0.0832,0.098 0.1621,0.118 0.059,0.02 0.1082,0.015 0.1473,-0.015 0.0594,-0.039 0.0891,-0.089 0.0891,-0.148 0.009,-0.055 -0.008,-0.107 -0.052,-0.154 0.003,0.006 0.006,0.014 0.007,0.022 l -0.0144,-0.03 0.007,0.008 c -0.0125,-0.029 -0.0351,-0.051 -0.0664,-0.067 -0.0687,-0.029 -0.1328,-0.039 -0.1918,-0.029 -0.0687,0.029 -0.1078,0.074 -0.1183,0.133"
       style="display:inline;fill:#973aa2;fill-opacity:1;fill-rule:evenodd;stroke:none;stroke-width:0.1"
       id="path1577" /><path
       d="m 127.6226,115.63507 c 0.0191,0.02 0.0492,0.025 0.0883,0.015 0.0394,-0.01 0.059,-0.035 0.059,-0.074 -0.01,-0.03 -0.0348,-0.049 -0.0739,-0.059 -0.0293,0 -0.059,0.01 -0.0882,0.029 v 0.015 c -0.0297,0.03 -0.0297,0.049 0,0.059 l 0.0148,0.015"
       style="display:inline;fill:#973aa2;fill-opacity:1;fill-rule:evenodd;stroke:none;stroke-width:0.1"
       id="path1579" /><path
       d="m 128.0499,114.13007 c 0.1477,0 0.2067,-0.073 0.177,-0.221 -0.0293,-0.147 -0.1129,-0.221 -0.2504,-0.221 -0.1477,0 -0.2066,0.074 -0.1773,0.221 0.0296,0.148 0.1132,0.221 0.2507,0.221"
       style="display:inline;fill:#973aa2;fill-opacity:1;fill-rule:evenodd;stroke:none;stroke-width:0.1"
       id="path1581" /><path
       d="m 127.0175,113.79207 c 0.0395,0 0.059,-0.02 0.059,-0.059 0,-0.03 -0.0195,-0.045 -0.059,-0.045 -0.039,0 -0.0586,0.015 -0.0586,0.045 0,0.039 0.0196,0.059 0.0586,0.059"
       style="display:inline;fill:#973aa2;fill-opacity:1;fill-rule:evenodd;stroke:none;stroke-width:0.1"
       id="path1583" /><path
       d="m 128.0355,114.66207 c 0.039,0.118 0.1176,0.167 0.2359,0.147 0.0391,0 0.0739,-0.015 0.1031,-0.044 0.0395,-0.039 0.059,-0.089 0.059,-0.148 l -0.0293,-0.118 c -0.01,-0.049 -0.0394,-0.093 -0.089,-0.132 -0.0586,-0.03 -0.1125,-0.04 -0.1621,-0.03 -0.0493,0.01 -0.0883,0.039 -0.1176,0.088 -0.0297,0.05 -0.0395,0.099 -0.0297,0.148 l 0.0297,0.089"
       style="display:inline;fill:#973aa2;fill-opacity:1;fill-rule:evenodd;stroke:none;stroke-width:0.1"
       id="path1585" /><path
       d="m 148.565,92.922074 c 0.03,-0.098 0,-0.177 -0.088,-0.236 l -1.077,-0.782 c -0.078,-0.068 -0.103,-0.152 -0.073,-0.25 l 0.413,-1.269 c 0.029,-0.098 0.004,-0.176 -0.074,-0.236 -0.089,-0.059 -0.177,-0.059 -0.266,0 l -1.076,0.782 c -0.079,0.069 -0.163,0.069 -0.251,0 l -1.0766,-0.782 c -0.0886,-0.059 -0.1722,-0.059 -0.2511,0 -0.0883,0.06 -0.1176,0.138 -0.0883,0.236 l 0.4133,1.269 c 0.0292,0.098 0.005,0.182 -0.0739,0.25 l -1.0769,0.782 c -0.0887,0.059 -0.118,0.138 -0.0887,0.236 0.0301,0.099 0.0988,0.148 0.2066,0.148 h 1.3422 c 0.1078,0 0.177,0.049 0.2067,0.147 l 0.4127,1.268 c 0.03,0.099 0.098,0.148 0.206,0.148 0.099,0 0.163,-0.049 0.192,-0.148 l 0.413,-1.268 c 0.03,-0.098 0.099,-0.147 0.206,-0.147 h 1.328 c 0.108,0 0.182,-0.049 0.221,-0.148"
       style="display:inline;fill:#f3681d;fill-opacity:1;fill-rule:evenodd;stroke:none;stroke-width:0.1"
       id="path1601" /><path
       d="m 145.1878,92.583074 c 0.1082,0 0.1621,-0.044 0.1621,-0.133 0,-0.098 -0.0586,-0.147 -0.1765,-0.147 -0.0985,0 -0.1477,0.044 -0.1477,0.133 0,0.098 0.0543,0.147 0.1621,0.147"
       style="display:inline;fill:#f3681d;fill-opacity:1;fill-rule:evenodd;stroke:none;stroke-width:0.1"
       id="path1603" /><path
       d="m 146.088,92.480074 c 0.01,0.011 0.02,0.025 0.029,0.044 l -0.088,-0.088 c -0.069,-0.04 -0.128,-0.045 -0.178,-0.016 -0.058,0.011 -0.103,0.05 -0.132,0.119 0,0.019 0.01,0.078 0.029,0.176 0.03,0.059 0.084,0.099 0.162,0.119 0.069,0 0.124,-0.01 0.163,-0.03 0.049,-0.039 0.079,-0.089 0.088,-0.147 0.01,-0.069 -0.009,-0.123 -0.059,-0.163 l -0.014,-0.014"
       style="display:inline;fill:#f3681d;fill-opacity:1;fill-rule:evenodd;stroke:none;stroke-width:0.1"
       id="path1605" /><path
       d="m 146.25,93.394074 c 0.019,0.02 0.049,0.025 0.088,0.015 0.04,-0.01 0.059,-0.03 0.059,-0.059 0,-0.039 -0.019,-0.059 -0.059,-0.059 -0.039,-0.01 -0.069,0 -0.088,0.029 h -0.015 c -0.019,0.02 -0.019,0.04 0,0.059 l 0.015,0.015"
       style="display:inline;fill:#f3681d;fill-opacity:1;fill-rule:evenodd;stroke:none;stroke-width:0.1"
       id="path1607" /><path
       d="m 146.678,91.890074 c 0.147,0 0.206,-0.074 0.176,-0.221 -0.029,-0.138 -0.112,-0.207 -0.25,-0.207 -0.148,0 -0.207,0.069 -0.177,0.207 0.029,0.147 0.113,0.221 0.251,0.221"
       style="display:inline;fill:#f3681d;fill-opacity:1;fill-rule:evenodd;stroke:none;stroke-width:0.1"
       id="path1609" /><path
       d="m 145.645,91.565074 c 0.039,0 0.064,-0.02 0.074,-0.059 0,-0.039 -0.02,-0.059 -0.059,-0.059 -0.0397,0 -0.064,0.02 -0.0737,0.059 0,0.039 0.0195,0.059 0.0587,0.059"
       style="display:inline;fill:#f3681d;fill-opacity:1;fill-rule:evenodd;stroke:none;stroke-width:0.1"
       id="path1611" /><path
       d="m 147.016,92.524074 c 0.05,-0.049 0.064,-0.093 0.045,-0.133 l -0.015,-0.118 c -0.03,-0.127 -0.118,-0.182 -0.265,-0.162 -0.049,0.01 -0.089,0.039 -0.118,0.088 -0.03,0.05 -0.04,0.099 -0.03,0.148 l 0.03,0.073 c 0.029,0.119 0.108,0.168 0.236,0.148 0.039,0 0.078,-0.015 0.117,-0.044"
       style="display:inline;fill:#f3681d;fill-opacity:1;fill-rule:evenodd;stroke:none;stroke-width:0.1"
       id="path1613" /><path
       d="m 150.335,121.43107 c 0.561,-0.668 1.273,-1.062 2.138,-1.18 0.876,-0.108 1.667,0.094 2.375,0.605 -0.364,-0.806 -0.954,-1.376 -1.77,-1.711 -0.796,-0.334 -1.607,-0.354 -2.433,-0.058 -0.315,0.756 -0.418,1.538 -0.31,2.344"
       style="display:inline;fill:#ce1b32;fill-opacity:1;fill-rule:evenodd;stroke:none;stroke-width:0.1"
       id="path1769" /><path
       d="m 153.093,125.04407 c -0.305,-0.815 -0.29,-1.627 0.045,-2.433 0.344,-0.806 0.914,-1.391 1.71,-1.755 -0.875,-0.088 -1.662,0.133 -2.359,0.664 -0.699,0.541 -1.121,1.238 -1.269,2.094 0.305,0.383 0.634,0.698 0.988,0.944 0.285,0.206 0.58,0.369 0.885,0.486"
       style="display:inline;fill:#ce1b32;fill-opacity:1;fill-rule:evenodd;stroke:none;stroke-width:0.1"
       id="path1771" /><path
       d="m 157.606,124.46907 c -0.855,-0.147 -1.549,-0.565 -2.079,-1.253 -0.531,-0.698 -0.758,-1.485 -0.679,-2.36 -0.511,0.718 -0.708,1.509 -0.59,2.375 0.109,0.865 0.497,1.577 1.165,2.138 0.817,-0.108 1.544,-0.408 2.183,-0.9"
       style="display:inline;fill:#ce1b32;fill-opacity:1;fill-rule:evenodd;stroke:none;stroke-width:0.1"
       id="path1773" /><path
       d="m 159.361,120.28107 c -0.55,0.668 -1.263,1.057 -2.139,1.165 -0.864,0.118 -1.656,-0.079 -2.374,-0.59 0.364,0.797 0.954,1.362 1.77,1.696 0.807,0.334 1.618,0.354 2.434,0.059 0.314,-0.757 0.418,-1.534 0.309,-2.33"
       style="display:inline;fill:#ce1b32;fill-opacity:1;fill-rule:evenodd;stroke:none;stroke-width:0.1"
       id="path1775" /><path
       d="m 156.603,116.65307 c 0.305,0.816 0.29,1.627 -0.044,2.434 -0.334,0.816 -0.904,1.405 -1.711,1.769 0.875,0.079 1.662,-0.148 2.36,-0.679 0.688,-0.531 1.111,-1.223 1.268,-2.079 -0.265,-0.354 -0.594,-0.674 -0.988,-0.959 -0.275,-0.206 -0.57,-0.368 -0.885,-0.486"
       style="display:inline;fill:#ce1b32;fill-opacity:1;fill-rule:evenodd;stroke:none;stroke-width:0.1"
       id="path1777" /><path
       d="m 154.273,116.32807 c -0.796,0.109 -1.524,0.409 -2.183,0.9 0.856,0.148 1.549,0.57 2.08,1.268 0.531,0.698 0.757,1.485 0.678,2.36 0.512,-0.718 0.708,-1.514 0.59,-2.389 -0.108,-0.865 -0.496,-1.578 -1.165,-2.139"
       style="display:inline;fill:#ce1b32;fill-opacity:1;fill-rule:evenodd;stroke:none;stroke-width:0.1"
       id="path1779" /><path
       d="m 151.22,123.61407 c 0.148,-0.856 0.57,-1.553 1.269,-2.094 0.697,-0.531 1.484,-0.752 2.359,-0.664 -0.708,-0.511 -1.499,-0.713 -2.375,-0.605 -0.865,0.118 -1.577,0.512 -2.138,1.18 0.089,0.787 0.384,1.515 0.885,2.183"
       style="display:inline;fill:#f17715;fill-opacity:1;fill-rule:evenodd;stroke:none;stroke-width:0.1"
       id="path1781" /><path
       d="m 154.848,120.85607 c -0.796,0.364 -1.366,0.949 -1.71,1.755 -0.335,0.806 -0.35,1.618 -0.045,2.433 0.737,0.325 1.514,0.433 2.33,0.325 -0.668,-0.561 -1.056,-1.273 -1.165,-2.138 -0.118,-0.866 0.079,-1.657 0.59,-2.375"
       style="display:inline;fill:#f17715;fill-opacity:1;fill-rule:evenodd;stroke:none;stroke-width:0.1"
       id="path1783" /><path
       d="m 159.052,122.61107 c -0.816,0.295 -1.627,0.275 -2.434,-0.059 -0.816,-0.334 -1.406,-0.899 -1.77,-1.696 -0.079,0.875 0.148,1.662 0.679,2.36 0.53,0.688 1.224,1.106 2.079,1.253 0.364,-0.275 0.683,-0.599 0.959,-0.973 0.197,-0.285 0.359,-0.58 0.487,-0.885"
       style="display:inline;fill:#f17715;fill-opacity:1;fill-rule:evenodd;stroke:none;stroke-width:0.1"
       id="path1785" /><path
       d="m 158.476,118.09807 c -0.157,0.856 -0.58,1.548 -1.268,2.079 -0.698,0.531 -1.485,0.758 -2.36,0.679 0.718,0.511 1.51,0.708 2.374,0.59 0.876,-0.108 1.589,-0.497 2.139,-1.165 -0.108,-0.826 -0.403,-1.554 -0.885,-2.183"
       style="display:inline;fill:#f17715;fill-opacity:1;fill-rule:evenodd;stroke:none;stroke-width:0.1"
       id="path1787" /><path
       d="m 154.273,116.32807 c 0.669,0.561 1.057,1.274 1.165,2.139 0.118,0.875 -0.078,1.671 -0.59,2.389 0.807,-0.364 1.377,-0.953 1.711,-1.769 0.334,-0.807 0.349,-1.618 0.044,-2.434 -0.717,-0.315 -1.494,-0.423 -2.33,-0.325"
       style="display:inline;fill:#f17715;fill-opacity:1;fill-rule:evenodd;stroke:none;stroke-width:0.1"
       id="path1789" /><path
       d="m 154.17,118.49607 c -0.531,-0.698 -1.224,-1.12 -2.08,-1.268 -0.373,0.275 -0.693,0.605 -0.958,0.988 -0.187,0.275 -0.349,0.565 -0.487,0.871 0.826,-0.296 1.637,-0.276 2.433,0.058 0.816,0.335 1.406,0.905 1.77,1.711 0.079,-0.875 -0.147,-1.662 -0.678,-2.36"
       style="display:inline;fill:#f17715;fill-opacity:1;fill-rule:evenodd;stroke:none;stroke-width:0.1"
       id="path1791" /><path
       d="m 151.368,120.59007 c 0.55,-0.275 1.13,-0.393 1.74,-0.353 0.639,0.039 1.219,0.246 1.74,0.619 -0.265,-0.58 -0.664,-1.048 -1.194,-1.401 -0.512,-0.344 -1.072,-0.531 -1.682,-0.56 -0.354,0.501 -0.555,1.066 -0.604,1.695"
       style="display:inline;fill:#ea2b6a;fill-opacity:1;fill-rule:evenodd;stroke:none;stroke-width:0.1"
       id="path1793" /><path
       d="m 152.887,123.73207 c 0.029,-0.62 0.216,-1.185 0.56,-1.696 0.354,-0.521 0.821,-0.914 1.401,-1.18 -0.629,-0.069 -1.229,0.04 -1.799,0.324 -0.551,0.276 -0.998,0.669 -1.342,1.18 0.265,0.541 0.639,0.984 1.12,1.328 l 0.06,0.044"
       style="display:inline;fill:#ea2b6a;fill-opacity:1;fill-rule:evenodd;stroke:none;stroke-width:0.1"
       id="path1795" /><path
       d="m 156.368,123.98307 c -0.512,-0.325 -0.905,-0.767 -1.181,-1.328 -0.285,-0.57 -0.398,-1.17 -0.339,-1.799 -0.374,0.521 -0.58,1.096 -0.619,1.725 -0.04,0.61 0.083,1.19 0.368,1.741 0.61,0.04 1.2,-0.074 1.771,-0.339"
       style="display:inline;fill:#ea2b6a;fill-opacity:1;fill-rule:evenodd;stroke:none;stroke-width:0.1"
       id="path1797" /><path
       d="m 158.329,121.10607 c -0.561,0.276 -1.146,0.394 -1.755,0.354 -0.629,-0.029 -1.205,-0.23 -1.726,-0.604 0.266,0.57 0.659,1.032 1.18,1.386 0.521,0.345 1.087,0.532 1.696,0.561 0.354,-0.502 0.556,-1.067 0.605,-1.697"
       style="display:inline;fill:#ea2b6a;fill-opacity:1;fill-rule:evenodd;stroke:none;stroke-width:0.1"
       id="path1799" /><path
       d="m 156.81,117.96507 c -0.04,0.62 -0.226,1.185 -0.561,1.696 -0.354,0.531 -0.82,0.929 -1.401,1.195 0.629,0.059 1.229,-0.054 1.8,-0.339 0.56,-0.275 1.008,-0.669 1.342,-1.18 -0.266,-0.541 -0.64,-0.983 -1.121,-1.328 l -0.059,-0.044"
       style="display:inline;fill:#ea2b6a;fill-opacity:1;fill-rule:evenodd;stroke:none;stroke-width:0.1"
       id="path1801" /><path
       d="m 155.099,117.37607 c -0.62,-0.05 -1.21,0.063 -1.77,0.338 0.521,0.335 0.914,0.777 1.18,1.328 0.285,0.57 0.398,1.175 0.339,1.814 0.374,-0.521 0.581,-1.101 0.62,-1.74 0.039,-0.61 -0.084,-1.19 -0.369,-1.74"
       style="display:inline;fill:#ea2b6a;fill-opacity:1;fill-rule:evenodd;stroke:none;stroke-width:0.1"
       id="path1803" /><path
       d="m 151.707,122.36007 c 0.344,-0.511 0.791,-0.904 1.342,-1.18 0.57,-0.284 1.17,-0.393 1.799,-0.324 -0.521,-0.373 -1.101,-0.58 -1.74,-0.619 -0.61,-0.04 -1.19,0.078 -1.74,0.353 -0.04,0.62 0.073,1.21 0.339,1.77"
       style="display:inline;fill:#f7922a;fill-opacity:1;fill-rule:evenodd;stroke:none;stroke-width:0.1"
       id="path1805" /><path
       d="m 154.848,120.85607 c -0.58,0.266 -1.047,0.659 -1.401,1.18 -0.344,0.511 -0.531,1.076 -0.56,1.696 0.521,0.344 1.091,0.54 1.71,0.59 -0.285,-0.551 -0.408,-1.131 -0.368,-1.741 0.039,-0.629 0.245,-1.204 0.619,-1.725"
       style="display:inline;fill:#f7922a;fill-opacity:1;fill-rule:evenodd;stroke:none;stroke-width:0.1"
       id="path1807" /><path
       d="m 157.724,122.80307 c -0.609,-0.029 -1.175,-0.216 -1.696,-0.561 -0.521,-0.354 -0.914,-0.816 -1.18,-1.386 -0.059,0.629 0.054,1.229 0.339,1.799 0.276,0.561 0.669,1.003 1.181,1.328 0.53,-0.246 0.968,-0.615 1.312,-1.107 l 0.044,-0.073"
       style="display:inline;fill:#f7922a;fill-opacity:1;fill-rule:evenodd;stroke:none;stroke-width:0.1"
       id="path1809" /><path
       d="m 157.99,119.33707 c -0.334,0.511 -0.782,0.905 -1.342,1.18 -0.571,0.285 -1.171,0.398 -1.8,0.339 0.521,0.374 1.097,0.575 1.726,0.604 0.609,0.04 1.194,-0.078 1.755,-0.354 0.049,-0.619 -0.064,-1.209 -0.339,-1.769"
       style="display:inline;fill:#f7922a;fill-opacity:1;fill-rule:evenodd;stroke:none;stroke-width:0.1"
       id="path1811" /><path
       d="m 155.099,117.37607 c 0.285,0.55 0.408,1.13 0.369,1.74 -0.039,0.639 -0.246,1.219 -0.62,1.74 0.581,-0.266 1.047,-0.664 1.401,-1.195 0.335,-0.511 0.521,-1.076 0.561,-1.696 -0.521,-0.344 -1.091,-0.541 -1.711,-0.589"
       style="display:inline;fill:#f7922a;fill-opacity:1;fill-rule:evenodd;stroke:none;stroke-width:0.1"
       id="path1813" /><path
       d="m 154.509,119.04207 c -0.266,-0.551 -0.659,-0.993 -1.18,-1.328 -0.541,0.266 -0.983,0.64 -1.327,1.121 l -0.03,0.06 c 0.61,0.029 1.17,0.216 1.682,0.56 0.53,0.353 0.929,0.821 1.194,1.401 0.059,-0.639 -0.054,-1.244 -0.339,-1.814"
       style="display:inline;fill:#f7922a;fill-opacity:1;fill-rule:evenodd;stroke:none;stroke-width:0.1"
       id="path1815" /><path
       d="m 169.139,95.547074 c -0.298,0.343 -0.399,0.572 -0.302,0.686 0.738,-1.06 0.839,-1.288 0.302,-0.686 z m 40.426,-8.392 c -1.042,-0.039 -2.128,-0.162 -3.259,-0.368 l -1.372,-0.31 c -2.252,0.148 -2.561,-1.745 -0.928,-5.678 0.56,-1.338 1.258,-2.713 2.093,-4.13 0.758,-1.249 1.225,-1.907 1.402,-1.976 0.072,-0.027 0.576,-0.814 1.512,-2.359 0.087,-0.141 0.178,-0.289 0.272,-0.443 0.974,-1.633 1.623,-2.198 1.947,-1.696 0.354,0.53 0.984,0.987 1.888,1.371 0.127,0.053 0.25,0.102 0.369,0.147 0.243,0.517 0.794,1.864 1.651,4.041 0.86,2.18 1.197,3.778 1.011,4.794 -0.185,1.015 -0.498,2.399 -0.936,4.152 -0.442,1.754 -2.326,2.573 -5.65,2.455 z m -62.925,-42.1071 c 0.013,0.0152 0.025,0.0301 0.038,0.0441 -0.005,-0.006 -0.01,-0.014 -0.015,-0.0211 -0.008,-0.009 -0.015,-0.016 -0.023,-0.023 z m 6.18,55.602096 0.347,-0.221 c -0.065,0.054 -0.128,0.111 -0.192,0.17 9.385,-3.326996 14.365,-4.971996 14.94,-4.932996 -0.884,-0.256 -2.335,-0.232 -4.35,0.073 -4.14,0.619 -8.068,2.38 -11.784,5.279996 0.351,-0.125 0.698,-0.247 1.039,-0.369 z m 29.283,-1.282996 c 2.596,1.170996 5.482,2.920996 8.658,5.250996 1.593,1.16 2.925,2.207 3.997,3.141 0.669,0.639 1.067,1.79 1.195,3.452 0.275,3.313 -0.91,7.521 -3.555,12.624 -4.552,8.781 -10.009,14.041 -16.371,15.781 -2.556,-0.108 -5.344,-0.949 -8.362,-2.522 -6.047,-3.156 -10.24,-8.411 -12.581,-15.766 -2.468,-7.787 -3.102,-12.9 -1.903,-15.339 0.482,-0.963 1.333,-1.716 2.552,-2.256 0.718,-0.325 1.927,-0.752 3.628,-1.283 0.511,-0.187 1.573,-0.619 3.186,-1.298 -3.068,-0.069 -5.816,0.777 -8.244,2.537 -1.918,1.386 -3.132,2.841 -3.643,4.365 -0.482,1.436 -0.571,2.965 -0.266,4.587 0.334,1.78 1.052,3.053 2.153,3.82 0.492,0.344 0.807,1.037 0.945,2.079 0.098,1.475 0.196,2.709 0.294,3.702 0.144,1.476 0.417,2.919 0.819,4.329 0.653,1.742 1.29,3.327 1.91,4.757 0.453,0.859 0.959,1.705 1.519,2.536 2.635,3.933 6.632,6.662 11.99,8.186 2.685,0.757 5.104,1.125 7.257,1.106 l 0.59,-0.118 c 5.388,-1.318 9.916,-5.654 13.583,-13.008 1.839,-3.668 3.137,-7.208 3.894,-10.619 1.416,-0.551 0.958,2.182 -1.372,8.2 -0.727,1.888 -1.597,3.987 -2.61,6.298 l -1.298,2.905 c 3.648,-3.323 6.111,-8.402 7.389,-15.235 0.649,-3.412 0.93,-6.494 0.841,-9.248 -0.118,-0.934 -0.551,-2.064 -1.298,-3.392 -1.494,-2.655 -3.806,-4.965 -6.932,-6.932 -3.137,-1.976 -5.792,-2.855996 -7.965,-2.639996 z m 1.852,-39.916 c 0.166,-0.643 0.326,-1.644 0.479,-3.002 0.11,-0.994 0.228,-1.926 0.354,-2.795 l 0.022,-0.162 c 0.061,-0.445 0.125,-0.872 0.192,-1.283 0.176,-1.243 0.375,-2.341 0.597,-3.2959 0.643,-2.768 1.661,-5.0531 3.053,-6.859 l 1.726,-2.2269 c -0.08,0.1187 -0.158,0.2386 -0.237,0.3609 0.25,-0.3269 0.531,-0.698 0.841,-1.1133 1.311,-1.75 3.54,-3.0726 6.689,-3.9668 3.15,-0.8961 5.094,-0.8808 5.833,0.0442 0.609,0.7566 0.639,2.1429 0.089,4.159 -0.335,1.2187 -1.092,3.2296 -2.272,6.032 -1.17,2.7918 -1.907,4.7588 -2.212,5.8998 -0.934,3.431 -1.357,5.574 -1.268,6.43 0.016,0.186 0.058,0.309 0.125,0.369 h 0.007 c 0.038,-0.006 0.08,-0.021 0.125,-0.044 0.292,-0.164 0.743,-0.725 1.35,-1.682 0.081,-0.127 0.6,-1.14 1.556,-3.038 0.031,-0.07 0.063,-0.142 0.096,-0.214 0.261,-0.576 0.61,-1.226 1.047,-1.946 0.615,-1.066 1.234,-1.985 1.859,-2.7592 0.008,-0.0117 0.018,-0.0238 0.029,-0.0359 0.694,-0.8617 1.446,-1.6188 2.257,-2.2719 0.755,-0.841 1.529,-1.5961 2.322,-2.2641 l 0.008,-0.007 c 3.109,-2.6059 6.521,-3.8789 10.235,-3.8199 l 7.536,-0.2949 c 4.691,-0.0301 6.215,0.364 4.573,1.18 -2.272,0.2059 -4.779,0.87 -7.522,1.9911 -3.53,1.4347 -6.809,3.4117 -9.838,5.9289 -5.335,4.4279 -9.25,9.2239 -11.747,14.3869 -1.097,2.268 -1.921,4.608 -2.47,7.02 -0.006,0.029 -0.014,0.058 -0.022,0.089 l -1.011,5.641 -0.214,0.074 0.207,-0.066 c -1.147,6.371 -2.1,10.484 -2.861,12.337 -0.906,2.209 -2.077,3.46 -3.511,3.754 -1.431,0.291 -3.08,0.406 -4.947,0.346 -2.153,-0.079 -3.702,-0.015 -4.646,0.192 -1.878,0.402 -4.208,0.864 -6.991,1.386 -2.733,0.515 -4.707,1.308 -5.921,2.382 1.038,-0.059 3.739,-0.333 8.104,-0.819 h 2.168 c 1.96,-0.043 4.893,0.048 8.798,0.273 3.904,0.226 5.524,2.263 4.859,6.113996 l 4.926,4.336 c 3.49,3.244 5.747,5.767 6.77,7.566 0.56,0.993 0.442,2.394 -0.354,4.203 -0.609,1.357 -1.775,3.274 -3.495,5.752 -2.105,2.93 -3.678,5.182 -4.72,6.755 -1.819,2.733 -3.156,5.127 -4.012,7.182 -1.249,1.595 -2.514,2.927 -3.797,3.998 -1.035,0.862 -1.981,1.7 -2.84,2.514 -2.802,1.788 -4.565,2.766 -5.287,2.935 -0.785,0.185 -1.269,0.281 -1.453,0.287 h 0.988 c 0.856,-0.049 1.765,-0.181 2.728,-0.398 3.078,-0.688 6.136,-2.094 9.174,-4.218 1.721,-1.219 3.117,-2.35 4.189,-3.392 0.453,-0.439 0.817,-0.828 1.091,-1.165 0.135,-0.171 0.248,-0.328 0.339,-0.472 -0.081,0.172 -0.152,0.364 -0.214,0.575 0.05,-0.07 0.097,-0.139 0.141,-0.207 -0.042,0.073 -0.083,0.174 -0.125,0.303 l -0.045,0.133 c -0.002,0.007 -0.005,0.014 -0.007,0.021 -0.005,0.017 -0.009,0.034 -0.014,0.052 l -0.023,0.074 c -0.013,0.046 -0.024,0.092 -0.037,0.14 l -0.007,0.007 c -0.005,0.004 -0.01,0.009 -0.014,0.016 -0.007,0.031 -0.015,0.063 -0.023,0.095 -0.016,0.091 -0.03,0.184 -0.044,0.28 -0.049,0.317 -0.159,0.636 -0.332,0.959 -0.006,0.008 -0.011,0.015 -0.015,0.022 l 0.007,-0.007 c -0.019,0.413 -0.58,1.096 -1.68,2.05 -1.014,0.885 -1.623,1.553 -1.829,2.006 -0.123,0.274 -0.239,0.589 -0.347,0.944 0.172,0.17 0.386,0.296 0.641,0.376 0.564,0.174 1.327,0.132 2.287,-0.126 1.612,-0.422 2.688,-1.155 3.229,-2.197 0.347,-0.653 0.718,-1.081 1.113,-1.283 0.204,-0.102 0.413,-0.146 0.627,-0.133 0.056,0.004 0.108,0.012 0.156,0.022 0.073,0.016 0.141,0.038 0.206,0.067 0.086,0.041 0.162,0.095 0.228,0.162 0.217,0.217 0.325,0.571 0.325,1.062 0,0.275 -0.177,1.101 -0.531,2.478 -0.432,1.681 -0.713,2.89 -0.841,3.627 -0.297,1.635 -0.233,2.559 0.192,2.773 0.338,0.17 0.898,-0.101 1.681,-0.811 0.083,-0.076 0.169,-0.157 0.259,-0.243 -0.017,0.008 -0.035,0.015 -0.053,0.022 0.026,-0.014 0.053,-0.029 0.082,-0.044 0.027,-0.026 0.054,-0.053 0.081,-0.081 0.298,-0.288 0.664,-0.661 1.099,-1.121 0.41,-0.426 0.86,-0.91 1.35,-1.453 0.78,-0.875 1.426,-1.558 1.939,-2.05 0.161,-0.153 0.314,-0.291 0.457,-0.413 0.019,-0.016 0.036,-0.031 0.052,-0.044 0.092,-0.078 0.185,-0.151 0.28,-0.222 0.345,-0.267 0.704,-0.502 1.076,-0.708 1.578,-0.852 3.402,-1.128 5.472,-0.825 0.074,0.011 0.149,0.023 0.222,0.036 l 0.073,0.015 c 1.842,0.346 3.07,1.342 3.688,2.987 0.364,0.993 0.484,2.08 0.361,3.259 -0.007,0.061 -0.014,0.122 -0.023,0.185 -0.029,0.099 -0.058,0.215 -0.087,0.346 -0.082,0.342 -0.145,0.607 -0.193,0.797 -0.049,0.205 -0.078,0.323 -0.088,0.354 v 0.162 c 0.018,-0.013 0.034,-0.025 0.051,-0.037 0.143,-0.107 0.282,-0.235 0.421,-0.384 0.09,-0.097 0.178,-0.203 0.266,-0.316 0.031,-0.031 0.066,-0.066 0.103,-0.104 0.324,-0.334 0.56,-0.698 0.707,-1.091 0.116,-0.151 0.218,-0.327 0.303,-0.531 0.359,-0.627 0.589,-1.31 0.686,-2.051 0.275,-1.975 -0.463,-4.1 -2.213,-6.371 -1.179,-0.393 -2.605,-0.604 -4.277,-0.634 -3.343,-0.049 -6.243,0.851 -8.701,2.699 -2.498,1.868 -3.388,1.77 -2.67,-0.295 0.236,-0.678 0.664,-1.618 1.283,-2.817 0.324,-0.639 0.738,-1.421 1.239,-2.345 0.61,-1.229 0.634,-1.991 0.074,-2.286 -0.757,-0.403 -2.65,-0.133 -5.678,0.812 l 0.368,-1.166 c 0.374,-0.983 0.846,-1.972 1.416,-2.965 1.849,-3.195 4.401,-5.899 7.655,-8.111 l 1.563,-1.504 c 1.141,-1.259 1.947,-2.547 2.419,-3.865 1.524,-4.198 -0.541,-7.865 -6.194,-11.002 -5.723,-3.176 -8.427,-5.138 -8.112,-5.885 0.108,-0.236 0.56,-0.368 1.357,-0.398 1.051,-0.039 1.583,-0.059 1.592,-0.059 0.777,-0.197 0.994,-0.703 0.649,-1.518996 -0.432,-0.983 -1.73,-2.001 -3.893,-3.053 -1.15,-0.561 -1.578,-1.224 -1.283,-1.991 0.256,-0.688 1.047,-1.401 2.374,-2.138 2.753,-1.535 5.88,-2.469 9.38,-2.803 3.127,-0.295 5.63,-1.18 7.507,-2.654 1.898,-1.495 2.739,-3.265 2.522,-5.31 -0.068,-0.639 -0.304,-1.834 -0.708,-3.584 -0.413,-1.81 -0.688,-3.265 -0.825,-4.366 -0.147,-1.188 -0.194,-2.33 -0.141,-3.429 0.699,-4.567 1.643,-7.464 2.832,-8.686 1.192,-1.223 2.394,-2.749 3.606,-4.58 0,-0.787 -0.354,-1.18 -1.062,-1.18 -1.396,0 -2.629,0.802 -3.702,2.404 -0.128,0.187 -0.452,0.737 -0.973,1.652 -0.285,0.501 -0.496,0.752 -0.634,0.752 -0.207,0 -0.369,-0.123 -0.486,-0.369 -0.099,-0.225 -0.149,-0.525 -0.149,-0.899 0,-0.413 0.074,-0.812 0.222,-1.194 0.147,-0.384 0.221,-0.713 0.221,-0.989 0,-0.089 -0.049,-0.172 -0.148,-0.251 -0.107,-0.098 -0.24,-0.147 -0.397,-0.147 -0.708,0 -1.53,1.573 -2.463,4.72 -0.551,1.858 -0.881,2.944 -0.989,3.258 -0.12,0.343 -0.235,0.625 -0.346,0.849 -0.064,-0.732 -0.037,-1.669 0.081,-2.81 0.137,-1.288 0.329,-2.202 0.575,-2.743 0.118,-0.265 0.536,-0.988 1.254,-2.168 0.53,-1.18 0.467,-2.06 -0.193,-2.64 -0.215,-0.177 -0.727,0.299 -1.533,1.43 -0.983,1.367 -2.291,3.545 -3.923,6.534 -1.18,2.164 -2.119,4.076 -2.817,5.738 -0.177,0.413 -0.295,0.648 -0.354,0.708 -0.059,0.068 -0.182,0.083 -0.369,0.044 -0.236,-0.05 -0.212,-0.87 0.074,-2.463 0.325,-1.839 0.895,-3.712 1.711,-5.619 2.419,-5.645 6.003,-9.396 10.752,-11.254 2.438,-0.963 4.842,-1.533 7.211,-1.7099 1.289,-0.109 2.935,-0.0789 4.941,0.0879 1.456,0.1082 2.39,0.0539 2.803,-0.1621 0.58,-0.325 0.855,-1.1508 0.826,-2.4778 -0.06,-2.3992 -2.045,-3.2652 -5.959,-2.5961 -1.219,0.2059 -2.557,0.5551 -4.012,1.0469 l -1.828,0.6641 0.044,-0.4129 c 0.099,-0.3449 0.309,-0.6789 0.634,-1.0031 1.062,-1.0622 3.097,-1.868 6.106,-2.4192 1.701,-0.3137 2.709,-0.7168 3.024,-1.209 0.285,-0.4316 0.014,-0.8808 -0.812,-1.3418 -0.776,-0.4332 -1.858,-0.7871 -3.244,-1.0621 -1.445,-0.2847 -2.871,-0.4078 -4.277,-0.3687 -10.757,0.275 -17.05,2.1918 -18.878,5.7519 -0.58,1.1309 -0.954,1.4699 -1.121,1.0168 -0.138,-0.3918 -0.114,-1.2777 0.073,-2.6539 0.168,-1.2879 0.418,-2.5859 0.753,-3.893 0.353,-1.3968 0.673,-2.3058 0.958,-2.7289 0.324,-0.4921 0.024,-0.9339 -0.9,-1.3281 -1.012,-0.4422 -2.38,-0.5851 -4.1,-0.4281 -4.818,0.4531 -10.059,2.9652 -15.722,7.5371 -0.186,-0.2359 -0.713,-0.5262 -1.578,-0.8699 -1.74,-0.6879 -4.312,-1.293 -7.713,-1.8141 -6.805,-1.239 -10.718,-1.873 -11.74,-1.9031 -0.689,-0.0289 -1.043,0.1531 -1.062,0.5461 -0.01,0.2371 0.177,0.934 0.56,2.0941 0.217,0.6399 0.58,1.4758 1.092,2.5078 0.393,0.7961 0.589,1.3121 0.589,1.5493 -0.009,0.3527 -0.344,0.5347 -1.002,0.5457 -0.659,0.009 -1.869,-0.1481 -3.628,-0.4731 -6.057,-1.1308 -10.177,-1.5777 -12.36,-1.3418 -2.28,0.2391 -2.8838,1.1391 -1.814,2.6988 -0.087,-0.191 -0.057,-0.3386 0.089,-0.4418 0.363,-0.2558 1.519,-0.275 3.465,-0.0601 10.453,1.1609 17.315,3.648 20.589,7.4631 1.013,1.19 1.628,2.463 1.844,3.821 0.014,0.764 0.028,1.283 0.044,1.555 0.011,0.127 0.021,0.199 0.03,0.214 0.014,0.019 0.029,0.022 0.044,0.007 0.07,-0.058 0.154,-0.463 0.251,-1.217 0.005,-0.033 0.01,-0.068 0.015,-0.102 0.106,-0.785 0.155,-1.593 0.147,-2.427 -0.024,-0.771 -0.108,-1.5 -0.251,-2.19 -0.031,-0.209 -0.065,-0.413 -0.103,-0.612 -0.422,-2.1762 -1.267,-3.8398 -2.536,-4.9922 -1.456,-1.318 -2.582,-2.4187 -3.378,-3.3039 -0.263,-0.2891 -0.924,-1.1891 -1.984,-2.6988 -0.128,-0.1879 -0.263,-0.3852 -0.405,-0.5903 0.004,0.0114 0.009,0.0211 0.014,0.0293 -0.03,-0.0429 -0.06,-0.0871 -0.088,-0.132 -1.338,-2.1633 -0.084,-2.5519 3.761,-1.1652 6.627,2.3793 11.066,7.0203 13.318,13.9221 0.501,1.534 0.993,3.672 1.475,6.416 0.23,1.308 0.471,2.041 0.722,2.198 0.049,0.033 0.099,0.043 0.148,0.029 0.02,-0.008 0.04,-0.018 0.059,-0.029 0.047,-0.03 0.093,-0.084 0.14,-0.162 0.08,-0.136 0.158,-0.345 0.235,-0.627 0.002,-0.005 0.005,-0.01 0.008,-0.015 0.003,-0.011 0.005,-0.02 0.008,-0.029"
       style="display:inline;fill:#382c69;fill-opacity:1;fill-rule:evenodd;stroke:none;stroke-width:0.1"
       id="path1985" /><path
       d="m 152.245,83.240074 c -0.01,0.023 -0.02,0.046 -0.029,0.066 0.007,-0.004 0.014,-0.009 0.022,-0.014 0.001,-0.017 0.004,-0.034 0.007,-0.052 z m -9.2841,25.661996 -0.0149,0.008 c 0.006,-0.006 0.0106,-0.011 0.0149,-0.015 z m 0.5531,-0.848 c 0.0316,-0.036 0.0641,-0.073 0.0957,-0.111 -0.0144,0.02 -0.0293,0.04 -0.0437,0.059 -0.0184,0.018 -0.0352,0.035 -0.052,0.052 z m -1.3645,1.6 c -0.008,0.005 -0.0148,0.01 -0.0218,0.015 0.005,-0.005 0.009,-0.01 0.0148,-0.015 z M 184.788,53.654074 c -0.126,0.869 -0.244,1.801 -0.354,2.795 -0.153,1.358 -0.313,2.359 -0.479,3.002 0.019,-0.073 0.064,-0.217 0.133,-0.436 0.09,-0.293 0.141,-0.533 0.154,-0.722 0.108,-0.777 0.275,-2.204 0.502,-4.278 0.015,-0.121 0.029,-0.241 0.044,-0.361 z m -12.123,2.176 c 0.022,-0.063 0.047,-0.126 0.073,-0.193 0.075,-0.779 0.101,-1.524 0.074,-2.234 0.008,0.834 -0.041,1.642 -0.147,2.427 z m -3.526,39.717 c 0.537,-0.602 0.436,-0.374 -0.302,0.686 -0.097,-0.114 0.004,-0.343 0.302,-0.686 z m 28.959,-37.549 c 0.39,-0.187 0.845,-0.745 1.365,-1.674 0.539,-0.967 1.052,-1.983 1.541,-3.046 -0.956,1.898 -1.475,2.911 -1.556,3.038 -0.607,0.957 -1.058,1.518 -1.35,1.682 z m 4.049,-6.88 c 0.427,-0.702 0.938,-1.475 1.534,-2.317 0.105,-0.1469 0.212,-0.2949 0.325,-0.4422 -0.625,0.7742 -1.244,1.6932 -1.859,2.7592 z m -51.605,51.323996 c -0.707,0.799 -1.337,1.773 -1.888,2.92 -0.015,0.099 -0.03,0.201 -0.044,0.303 0.777,-1.596 1.706,-2.849 2.787,-3.761 z m 58.072,-58.655096 c -1.796,2.7313 -3.371,5.1371 -4.726,7.2191 -1.308,2.163 -2.173,3.58 -2.596,4.248 -0.58,0.915 -1.191,1.731 -1.829,2.449 -0.718,0.786 -1.214,0.899 -1.49,0.339 h -0.007 c -0.067,-0.06 -0.109,-0.183 -0.125,-0.369 -0.089,-0.856 0.334,-2.999 1.268,-6.43 0.305,-1.141 1.042,-3.108 2.212,-5.8998 1.18,-2.8024 1.937,-4.8133 2.272,-6.032 0.55,-2.0161 0.52,-3.4024 -0.089,-4.159 -0.739,-0.925 -2.683,-0.9403 -5.833,-0.0442 -3.149,0.8942 -5.378,2.2168 -6.689,3.9668 -0.31,0.4153 -0.591,0.7864 -0.841,1.1133 -1.686,2.6707 -3.117,6.7539 -4.292,12.2489 -0.539,2.743 -1.026,4.757 -1.46,6.04 -0.432,1.284 -0.708,1.905 -0.825,1.865 -0.027,-0.008 -0.048,-0.018 -0.059,-0.029 -0.049,0.014 -0.099,0.004 -0.148,-0.029 -0.251,-0.157 -0.492,-0.89 -0.722,-2.198 -0.482,-2.744 -0.974,-4.882 -1.475,-6.416 -2.252,-6.9018 -6.691,-11.5428 -13.318,-13.9221 -3.845,-1.3867 -5.099,-0.9981 -3.761,1.1652 0.028,0.0449 0.058,0.0891 0.088,0.132 -0.005,-0.008 -0.01,-0.0179 -0.014,-0.0293 0.142,0.2051 0.277,0.4024 0.405,0.5903 0.779,0.2988 1.868,0.884 3.267,1.7551 1.672,1.0218 2.96,1.9468 3.864,2.7718 1.74,1.5739 2.408,4.3469 2.006,8.319 -0.128,1.298 -0.354,2.566 -0.679,3.805 -0.295,1.091 -0.492,1.45 -0.589,1.077 -0.015,-0.056 -0.025,-0.119 -0.03,-0.185 -0.015,0.015 -0.03,0.012 -0.044,-0.007 -0.009,-0.015 -0.019,-0.087 -0.03,-0.214 -0.016,-0.272 -0.03,-0.791 -0.044,-1.555 -0.216,-1.358 -0.831,-2.631 -1.844,-3.821 -3.274,-3.8151 -10.136,-6.3022 -20.589,-7.4631 -1.946,-0.2149 -3.102,-0.1957 -3.465,0.0601 -0.146,0.1032 -0.176,0.2508 -0.089,0.4418 0.1,0.1461 0.216,0.2981 0.346,0.4571 0.008,0.007 0.015,0.014 0.023,0.023 l 0.007,0.007 c 0.004,0.004 0.006,0.008 0.008,0.014 0.025,0.0289 0.049,0.0551 0.073,0.0809 0.296,0.3472 0.591,0.5851 0.885,0.716 0.321,0.3121 0.574,0.4961 0.76,0.5531 l 0.014,0.008 c 2.931,0.8582 4.418,1.3012 4.462,1.3274 l 4.262,1.3558 c 3.167,0.885 5.58,1.269 7.242,1.151 0.914,-0.069 1.834,1.524 2.758,4.779 0.875,3.067 1.514,6.686 1.917,10.855 0.422,4.404 0.401,8.044 -0.066,10.92 -0.467,2.879 -1.374,4.72 -2.721,5.524 0.382,-0.722 0.682,-1.676 0.899,-2.861 -0.63,3.063 -1.781,4.361 -3.451,3.894 -3.038,-0.846 -5.447,-2.429 -7.227,-4.75 -0.619,-0.796 -1.101,-1.602 -1.445,-2.418 -0.276,-0.659 -0.393,-1.101 -0.354,-1.328 -0.023,0.035 -0.047,0.069 -0.074,0.103 -0.001,0.005 -0.004,0.01 -0.007,0.015 -10e-4,0.021 -10e-4,0.04 0,0.06 -0.116,0.845 -0.261,2.09 -0.435,3.731 -0.14,1.308 -0.416,2.439 -0.826,3.392 -0.033,0.156 -0.067,0.328 -0.103,0.516 -0.108,0.62 -0.374,0.929 -0.797,0.929 -0.175,0 -0.347,-0.037 -0.516,-0.11 -0.648,-0.292 -1.238,-1.145 -1.77,-2.559 -0.59,-1.573 -0.885,-3.122 -0.885,-4.646 0,-0.128 0.05,-0.757 0.148,-1.888 0,-0.924 -0.295,-1.745 -0.885,-2.463 -0.218,-0.267 -0.434,-0.478 -0.649,-0.634 -0.354,0.084 -0.531,0.345 -0.531,0.782 0,0.013 0,0.028 0,0.044 0.013,0.2 0.102,0.618 0.265,1.253 0.167,0.689 0.251,1.274 0.251,1.755 0,0.669 -0.12,1.249 -0.361,1.74 -0.027,0.051 -0.054,0.1 -0.081,0.148 -0.354,0.64 -0.871,0.959 -1.549,0.959 -0.192,0 -0.3686,-0.054 -0.5311,-0.162 -0.0656,0.01 -0.1343,0.014 -0.2058,0.014 -0.4133,0 -0.7082,-0.123 -0.8856,-0.368 -0.1472,-0.207 -0.2211,-0.516 -0.2211,-0.929 0,-1.622 0.32,-3.358 0.959,-5.206 0.6387,-1.849 0.9586,-3.123 0.9586,-3.821 0,-0.718 -0.172,-1.356 -0.5164,-1.917 -0.3355,-0.559 -0.7641,-0.875 -1.2828,-0.944 -0.0152,0.018 -0.0301,0.039 -0.0445,0.059 -0.0985,0.138 -0.1477,0.369 -0.1477,0.694 0,0.175 0.0195,0.408 0.0594,0.7 0.0316,0.231 0.0762,0.499 0.1328,0.804 0.1176,0.688 0.1766,1.194 0.1766,1.519 0,0.836 -0.2067,2.06 -0.6192,3.672 -0.4226,1.612 -0.6344,3.653 -0.6344,6.121 0,0.669 -0.0738,1.185 -0.221,1.549 -0.1692,0.422 -0.4469,0.68 -0.8336,0.774 -0.1059,0.024 -0.2215,0.037 -0.3465,0.037 -0.0629,0 -0.1492,-0.059 -0.2578,-0.177 -0.0442,0.019 -0.0907,0.029 -0.1403,0.029 -0.3246,0 -0.5359,-0.786 -0.6343,-2.359 -0.0493,-0.865 -0.0739,-2.615 -0.0739,-5.251 0,-0.639 0.0399,-1.371 0.1184,-2.197 0.0687,-0.827 0.1031,-1.46 0.1031,-1.903 0,-1.16 -0.0492,-1.932 -0.1476,-2.315 -0.0704,-0.286 -0.1786,-0.508 -0.3243,-0.664 -0.4308,0.134 -0.8168,0.462 -1.1582,0.98 -0.5687,0.878 -1.0086,2.301 -1.3195,4.27 -0.2949,1.879 -0.4426,3.938 -0.4426,6.18 -0.0195,3.254 -0.2949,5.762 -0.8262,7.522 -0.2679,0.911 -1.1035,3.025 -2.5074,6.342 -0.1273,0.286 -0.248,0.569 -0.3613,0.848 -0.0254,0.062 -0.0496,0.123 -0.0734,0.184 -1.2829,3.177 -1.7672,5.998 -1.4528,8.465996 0.1797,-1.248996 0.5977,-2.433996 1.2539,-3.554996 0.5407,-0.934 1.1356,-1.676 1.784,-2.227 0.3246,-0.265 0.8606,-0.914 1.6078,-1.947 0.8559,-1.179 1.3668,-2.074 1.534,-2.684 0.1867,-0.639 0.3246,-1.258 0.4129,-1.858 0.0688,-0.472 0.1281,-1.082 0.177,-1.829 0.0296,-0.413 0.1476,-0.772 0.3539,-1.077 0.2461,-0.393 0.5554,-0.57 0.9293,-0.53 1.0519,0.098 2.3644,1.764 3.9379,4.999 1.2328,2.543 1.8427,4.197 1.8287,4.963 0.085,-0.024 0.194,-0.037 0.325,-0.037 0.756,-0.009 1.371,0.398 1.843,1.224 0.344,0.61 0.516,1.136 0.516,1.579 0,0.206 -0.172,0.864 -0.516,1.976 -0.334,1.080996 -0.61,1.877996 -0.826,2.388996 -0.056,0.13 -0.161,0.354 -0.317,0.671 -0.014,0.017 -0.026,0.035 -0.037,0.052 -0.083,0.129 -0.597,0.916 -1.541,2.359 -0.032,0.042 -0.059,0.077 -0.0808,0.104 -1.0524,1.268 -1.8535,2.227 -2.4043,2.876 -0.6895,0.834 -1.1367,1.394 -1.3418,1.681 -0.2684,0.237 -0.411,0.382 -0.4281,0.435 v 0.111 c 0.0199,0 0.0343,0.01 0.0441,0.029 0.0894,-0.041 0.1883,-0.094 0.2949,-0.162 0.1465,0.192 0.6774,0.069 1.593,-0.369 0.4207,-0.199 0.7695,-0.398 1.0473,-0.597 0.3187,-0.229 0.5425,-0.458 0.6707,-0.686 0.3363,-0.346 0.7906,-0.882 1.364,-1.608 0.439,-0.554 0.85,-1.073 1.232,-1.555 0.161,-0.143 0.33,-0.313 0.509,-0.509 0.315,-0.364 0.757,-0.88 1.327,-1.549 0.164,-0.164 0.339,-0.351 0.524,-0.56 0.072,-0.081 0.146,-0.164 0.221,-0.251 l 2.802,-1.785 c -0.341,0.122 -0.688,0.244 -1.039,0.369 3.716,-2.899996 7.644,-4.660996 11.784,-5.279996 2.015,-0.305 3.466,-0.329 4.35,-0.073 -0.575,-0.039 -5.555,1.606 -14.94,4.932996 -1.048,0.937 -1.947,2.208 -2.699,3.812 -1.602,3.393 -1.573,6.932 0.089,10.619 0.403,0.895 1.48,3.815 3.23,8.761 0.34,0.966 0.677,1.893 1.01,2.78 -0.402,-1.41 -0.675,-2.853 -0.819,-4.329 -0.098,-0.993 -0.196,-2.227 -0.294,-3.702 -0.138,-1.042 -0.453,-1.735 -0.945,-2.079 -1.101,-0.767 -1.819,-2.04 -2.153,-3.82 -0.305,-1.622 -0.216,-3.151 0.266,-4.587 0.511,-1.524 1.725,-2.979 3.643,-4.365 2.428,-1.76 5.176,-2.606 8.244,-2.537 3.038,-1.307996 5.32,-2.172996 6.843,-2.595996 2.744,-0.767 5.374,-0.993 7.891,-0.679 1.416,0.178 3.024,0.674 4.822,1.49 2.173,-0.216 4.828,0.663996 7.965,2.639996 3.126,1.967 5.438,4.277 6.932,6.932 0.747,1.328 1.18,2.458 1.298,3.392 0.089,2.754 -0.192,5.836 -0.841,9.248 -1.278,6.833 -3.741,11.912 -7.389,15.235 l 1.298,-2.905 c 1.013,-2.311 1.883,-4.41 2.61,-6.298 2.33,-6.018 2.788,-8.751 1.372,-8.2 -0.757,3.411 -2.055,6.951 -3.894,10.619 -3.667,7.354 -8.195,11.69 -13.583,13.008 l -0.59,0.118 c -2.153,0.019 -4.572,-0.349 -7.257,-1.106 -5.358,-1.524 -9.355,-4.253 -11.99,-8.186 -0.56,-0.831 -1.066,-1.677 -1.519,-2.536 0.22,0.504 0.438,0.989 0.656,1.452 0.167,0.337 0.336,0.674 0.509,1.01 0.787,1.525 1.445,2.763 1.976,3.717 4.73,6.312 9.715,9.149 14.955,8.51 1.633,-0.206 3.195,-0.742 4.691,-1.607 0.747,-0.443 1.327,-0.861 1.74,-1.254 -0.128,1.544 -0.904,2.797 -2.33,3.761 -2.245,1.514 -5.613,1.509 -10.103,-0.015 2.04,1.176 4.218,1.909 6.533,2.198 l 2.655,-0.561 c 2.163,-0.403 4.209,-0.678 6.135,-0.825 0.381,-0.029 0.752,-0.051 1.114,-0.067 l 1.468,-0.686 c 1.011,-0.439 1.82,-0.746 2.425,-0.922 2.009,-1.235 3.899,-2.55 5.671,-3.945 0.844,-0.675 1.604,-1.297 2.279,-1.866 0.004,-0.007 0.009,-0.014 0.015,-0.022 0.173,-0.323 0.283,-0.642 0.332,-0.959 0.014,-0.096 0.028,-0.189 0.044,-0.28 0.008,-0.032 0.016,-0.064 0.023,-0.095 0.004,-0.007 0.009,-0.012 0.014,-0.016 l 0.007,-0.007 c 0.013,-0.048 0.024,-0.094 0.037,-0.14 l 0.023,-0.074 c 0.005,-0.018 0.009,-0.035 0.014,-0.052 0.002,-0.007 0.005,-0.014 0.007,-0.021 0.012,-0.074 0.025,-0.15 0.037,-0.229 l 0.008,0.096 c 0.042,-0.129 0.083,-0.23 0.125,-0.303 -0.044,0.068 -0.091,0.137 -0.141,0.207 0.062,-0.211 0.133,-0.403 0.214,-0.575 -0.091,0.144 -0.204,0.301 -0.339,0.472 -0.274,0.337 -0.638,0.726 -1.091,1.165 -1.072,1.042 -2.468,2.173 -4.189,3.392 -3.038,2.124 -6.096,3.53 -9.174,4.218 -0.963,0.217 -1.872,0.349 -2.728,0.398 h -0.988 c 0.184,-0.006 0.668,-0.102 1.453,-0.287 0.722,-0.169 2.485,-1.147 5.287,-2.935 0.859,-0.814 1.805,-1.652 2.84,-2.514 1.283,-1.071 2.548,-2.403 3.797,-3.998 0.856,-2.055 2.193,-4.449 4.012,-7.182 1.042,-1.573 2.615,-3.825 4.72,-6.755 1.72,-2.478 2.886,-4.395 3.495,-5.752 0.796,-1.809 0.914,-3.21 0.354,-4.203 -1.023,-1.799 -3.28,-4.322 -6.77,-7.566 l -4.926,-4.336 c 0.665,-3.850996 -0.955,-5.887996 -4.859,-6.113996 -3.905,-0.225 -6.838,-0.316 -8.798,-0.273 h -2.168 c -4.365,0.486 -7.066,0.76 -8.104,0.819 1.214,-1.074 3.188,-1.867 5.921,-2.382 2.783,-0.522 5.113,-0.984 6.991,-1.386 0.944,-0.207 2.493,-0.271 4.646,-0.192 1.867,0.06 3.516,-0.055 4.947,-0.346 1.434,-0.294 2.605,-1.545 3.511,-3.754 0.761,-1.853 1.714,-5.966 2.861,-12.337 l -0.207,0.066 0.214,-0.074 1.011,-5.641 c 0.008,-0.031 0.016,-0.06 0.022,-0.089 0.549,-2.412 1.373,-4.752 2.47,-7.02 2.497,-5.163 6.412,-9.959 11.747,-14.3869 3.029,-2.5172 6.308,-4.4942 9.838,-5.9289 2.743,-1.1211 5.25,-1.7852 7.522,-1.9911 1.642,-0.816 0.118,-1.2101 -4.573,-1.18 l -7.536,0.2949 c -3.714,-0.059 -7.126,1.214 -10.235,3.8199 z m -9.947,103.912096 c -0.964,1.13 -2.267,1.278 -3.909,0.442 l 2.153,-0.649 c 1.456,-0.491 2.262,-0.89 2.419,-1.195 0.019,0.404 -0.201,0.87 -0.663,1.402 z m 2.86,-5.59 c -0.796,0.718 -1.637,1.298 -2.521,1.74 0.334,-0.63 0.705,-1.185 1.113,-1.666 0.063,-0.075 0.128,-0.139 0.191,-0.192 -0.395,0.202 -0.766,0.63 -1.113,1.283 -0.541,1.042 -1.617,1.775 -3.229,2.197 -0.96,0.258 -1.723,0.3 -2.287,0.126 -0.255,-0.08 -0.469,-0.206 -0.641,-0.376 -0.113,0.358 -0.219,0.756 -0.318,1.194 -0.058,0.266 -0.525,0.634 -1.401,1.106 -0.242,0.134 -0.458,0.254 -0.648,0.362 2.348,0.413 3.956,1.261 4.823,2.544 1.307,1.937 2.512,3.195 3.613,3.776 0.58,0.309 1.167,0.452 1.762,0.427 h 0.008 c 0.396,-0.014 0.797,-0.102 1.202,-0.265 0.104,-0.09 0.21,-0.183 0.316,-0.28 0.87,-0.805 1.79,-1.901 2.759,-3.289 1.16,-1.662 2.384,-2.97 3.672,-3.924 0.442,-0.323 0.875,-0.594 1.298,-0.811 0.89,-0.726 1.761,-1.226 2.61,-1.504 0.454,0.118 0.995,0.33 1.623,0.635 0.963,0.452 1.603,0.859 1.917,1.223 0.531,0.59 0.9,1.195 1.107,1.815 0.157,0.471 0.235,1.032 0.235,1.681 0,0.904 -0.295,1.588 -0.885,2.05 -0.471,0.374 -1.061,0.56 -1.769,0.56 -0.162,0 -0.315,-0.01 -0.457,-0.029 -0.531,0.315 -1.091,0.389 -1.682,0.221 -0.295,0.167 -0.428,0.32 -0.398,0.458 0.006,0.035 0.026,0.067 0.059,0.095 -0.107,0.097 -0.151,0.188 -0.133,0.273 0.049,0.275 0.87,0.319 2.463,0.133 1.269,-0.148 2.478,-0.639 3.628,-1.475 l 0.007,-0.037 c -0.017,0.012 -0.033,0.024 -0.051,0.037 v -0.162 c 0.01,-0.031 0.039,-0.149 0.088,-0.354 0.048,-0.19 0.111,-0.455 0.193,-0.797 0.029,-0.131 0.058,-0.247 0.087,-0.346 0.009,-0.063 0.016,-0.124 0.023,-0.185 0.123,-1.179 0.003,-2.266 -0.361,-3.259 -0.618,-1.645 -1.846,-2.641 -3.688,-2.987 l -0.073,-0.015 c -0.073,-0.013 -0.148,-0.025 -0.222,-0.036 -2.07,-0.303 -3.894,-0.027 -5.472,0.825 0.045,-0.019 0.09,-0.039 0.133,-0.058 -0.747,0.757 -1.641,1.715 -2.684,2.876 -0.905,1.002 -1.696,1.814 -2.374,2.433 -0.411,0.363 -0.89,0.65 -1.438,0.863 -0.09,0.086 -0.176,0.167 -0.259,0.243 -0.783,0.71 -1.343,0.981 -1.681,0.811 -0.425,-0.214 -0.489,-1.138 -0.192,-2.773 0.128,-0.737 0.409,-1.946 0.841,-3.627 0.354,-1.377 0.531,-2.203 0.531,-2.478 0,-0.491 -0.108,-0.845 -0.325,-1.062"
       style="display:inline;fill:#4f3e9c;fill-opacity:1;fill-rule:evenodd;stroke:none;stroke-width:0.1"
       id="path1987" /><path
       d="m 201.004,53.278074 c -0.489,1.063 -1.002,2.079 -1.541,3.046 -0.52,0.929 -0.975,1.487 -1.365,1.674 -0.045,0.023 -0.087,0.038 -0.125,0.044 0.276,0.56 0.772,0.447 1.49,-0.339 0.638,-0.718 1.249,-1.534 1.829,-2.449 0.423,-0.668 1.288,-2.085 2.596,-4.248 1.355,-2.082 2.93,-4.4878 4.726,-7.2191 -0.793,0.668 -1.567,1.4231 -2.322,2.2641 -0.811,0.6531 -1.563,1.4102 -2.257,2.2719 -0.011,0.0121 -0.021,0.0242 -0.029,0.0359 -0.113,0.1473 -0.22,0.2953 -0.325,0.4422 -0.596,0.842 -1.107,1.615 -1.534,2.317 -0.437,0.72 -0.786,1.37 -1.047,1.946 -0.033,0.072 -0.065,0.144 -0.096,0.214 z m -10.863,-13.0899 c 0.079,-0.1223 0.157,-0.2422 0.237,-0.3609 l -1.726,2.2269 c -1.392,1.8059 -2.41,4.091 -3.053,6.859 -0.222,0.9549 -0.421,2.0529 -0.597,3.2959 -0.067,0.411 -0.131,0.838 -0.192,1.283 l -0.022,0.162 c -0.015,0.12 -0.029,0.24 -0.044,0.361 -0.227,2.074 -0.394,3.501 -0.502,4.278 -0.013,0.189 -0.064,0.429 -0.154,0.722 -0.069,0.219 -0.114,0.363 -0.133,0.436 -0.003,0.009 -0.005,0.018 -0.008,0.029 -0.003,0.005 -0.006,0.01 -0.008,0.015 -0.077,0.282 -0.155,0.491 -0.235,0.627 -0.047,0.078 -0.093,0.132 -0.14,0.162 -0.019,0.011 -0.039,0.021 -0.059,0.029 0.011,0.011 0.032,0.021 0.059,0.029 0.117,0.04 0.393,-0.581 0.825,-1.865 0.434,-1.283 0.921,-3.297 1.46,-6.04 1.175,-5.495 2.606,-9.5782 4.292,-12.2489 z m -25.581,-0.582 c 1.06,1.5097 1.721,2.4097 1.984,2.6988 0.796,0.8852 1.922,1.9859 3.378,3.3039 1.269,1.1524 2.114,2.816 2.536,4.9922 0.038,0.199 0.072,0.403 0.103,0.612 0.143,0.69 0.227,1.419 0.251,2.19 0.027,0.71 10e-4,1.455 -0.074,2.234 -0.026,0.067 -0.051,0.13 -0.073,0.193 -0.005,0.034 -0.01,0.069 -0.015,0.102 -0.097,0.754 -0.181,1.159 -0.251,1.217 0.005,0.066 0.015,0.129 0.03,0.185 0.097,0.373 0.294,0.014 0.589,-1.077 0.325,-1.239 0.551,-2.507 0.679,-3.805 0.402,-3.9721 -0.266,-6.7451 -2.006,-8.319 -0.904,-0.825 -2.192,-1.75 -3.864,-2.7718 -1.399,-0.8711 -2.488,-1.4563 -3.267,-1.7551 z m -16.673,31.7389 c -0.302,-0.217 -0.602,-0.325 -0.9,-0.325 -0.314,0 -0.535,0.074 -0.663,0.222 -0.099,0.118 -0.148,0.324 -0.148,0.619 0,0.345 0.088,0.88 0.266,1.607 0.167,0.738 0.25,1.333 0.25,1.785 0,1.628 -0.447,2.499 -1.3421,2.611 0.1625,0.108 0.3391,0.162 0.5311,0.162 0.678,0 1.195,-0.319 1.549,-0.959 0.027,-0.048 0.054,-0.097 0.081,-0.148 0.241,-0.491 0.361,-1.071 0.361,-1.74 0,-0.481 -0.084,-1.066 -0.251,-1.755 -0.163,-0.635 -0.252,-1.053 -0.265,-1.253 0,-0.016 0,-0.031 0,-0.044 0,-0.437 0.177,-0.698 0.531,-0.782 z m -6.4671,9.1 c 0.1086,0.118 0.1949,0.177 0.2578,0.177 0.125,0 0.2406,-0.013 0.3465,-0.037 0.3867,-0.094 0.6644,-0.352 0.8336,-0.774 0.1472,-0.364 0.221,-0.88 0.221,-1.549 0,-2.468 0.2118,-4.509 0.6344,-6.121 0.4125,-1.612 0.6192,-2.836 0.6192,-3.672 0,-0.325 -0.059,-0.831 -0.1766,-1.519 -0.0566,-0.305 -0.1012,-0.573 -0.1328,-0.804 -0.0399,-0.292 -0.0594,-0.525 -0.0594,-0.7 0,-0.325 0.0492,-0.556 0.1477,-0.694 0.0144,-0.02 0.0293,-0.041 0.0445,-0.059 -0.0711,-0.01 -0.1445,-0.015 -0.2215,-0.015 -0.6293,0 -0.9832,0.462 -1.0617,1.387 0.0293,1.042 0.0242,1.687 -0.0148,1.932 -0.1473,0.826 -0.261,1.461 -0.3395,1.903 -0.1473,0.796 -0.2309,1.465 -0.2504,2.006 -0.0199,2.536 -0.059,4.38 -0.1184,5.53 -0.0882,1.816 -0.3312,2.819 -0.7296,3.009 z m -1.0989,-14.66 c -0.1785,-0.197 -0.4148,-0.295 -0.7078,-0.295 -1.259,0 -2.1437,1.175 -2.6551,3.524 -0.1574,0.748 -0.2753,1.593 -0.3539,2.537 -0.0492,0.836 -0.0785,1.298 -0.0882,1.387 -0.3442,3.067 -0.6489,5.388 -0.9145,6.961 -0.3996,2.353 -0.918,4.715 -1.5562,7.087 -0.9852,1.784 -1.7993,3.58 -2.4411,5.391 -1.9961,5.614 -1.9371,10.165996 0.1774,13.656996 1.9265,3.185 3.9722,5.014 6.1351,5.486 2.0438,0.435 4.1282,-0.354 6.2536,-2.367 -0.2778,0.199 -0.6266,0.398 -1.0473,0.597 -0.9156,0.438 -1.4465,0.561 -1.593,0.369 -0.1066,0.068 -0.2055,0.121 -0.2949,0.162 -0.01,-0.019 -0.0242,-0.029 -0.0441,-0.029 v -0.111 c -0.7938,0.063 -1.5801,-0.058 -2.3594,-0.361 -1.8488,-0.728 -3.6086,-2.468 -5.2805,-5.221 -0.732,-1.206 -1.1891,-2.533 -1.3715,-3.982 -0.3144,-2.467996 0.1699,-5.288996 1.4528,-8.465996 0.0238,-0.061 0.048,-0.122 0.0734,-0.184 0.1133,-0.279 0.234,-0.562 0.3613,-0.848 1.4039,-3.317 2.2395,-5.431 2.5074,-6.342 0.5313,-1.76 0.8067,-4.268 0.8262,-7.522 0,-2.242 0.1477,-4.301 0.4426,-6.18 0.3109,-1.969 0.7508,-3.392 1.3195,-4.27 0.3414,-0.518 0.7274,-0.846 1.1582,-0.98 z m 14.284,9.232 c 0.002,-0.024 0.005,-0.049 0.007,-0.073 -0.055,0.113 -0.106,0.225 -0.155,0.331 -0.174,0.304 -0.344,0.65 -0.508,1.04 -0.248,0.52 -0.381,0.8 -0.398,0.841 -0.626,1.66 -1.061,3.688 -1.306,6.084 -0.003,0.018 -0.006,0.035 -0.007,0.052 -0.008,0.005 -0.015,0.01 -0.022,0.014 -0.101,0.08 -0.197,0.156 -0.288,0.229 0.169,0.073 0.341,0.11 0.516,0.11 0.423,0 0.689,-0.309 0.797,-0.929 0.036,-0.188 0.07,-0.36 0.103,-0.516 0.41,-0.953 0.686,-2.084 0.826,-3.392 0.174,-1.641 0.319,-2.886 0.435,-3.731 -10e-4,-0.02 -10e-4,-0.039 0,-0.06 z m 12.558,4.484 c -0.217,1.185 -0.517,2.139 -0.899,2.861 1.347,-0.804 2.254,-2.645 2.721,-5.524 0.467,-2.876 0.488,-6.516 0.066,-10.92 -0.403,-4.169 -1.042,-7.788 -1.917,-10.855 -0.924,-3.255 -1.844,-4.848 -2.758,-4.779 -1.662,0.118 -4.075,-0.266 -7.242,-1.151 l -4.262,-1.3558 c -0.044,-0.0262 -1.531,-0.4692 -4.462,-1.3274 l -0.014,-0.008 c -0.186,-0.057 -0.439,-0.241 -0.76,-0.5531 -0.294,-0.1309 -0.589,-0.3688 -0.885,-0.716 -0.024,-0.0258 -0.048,-0.052 -0.073,-0.0809 -0.002,-0.006 -0.004,-0.0101 -0.008,-0.014 l -0.007,-0.007 c 0.005,0.007 0.01,0.0153 0.015,0.0211 0.051,0.077 0.103,0.15 0.154,0.2211 0.098,0.1199 0.203,0.2551 0.317,0.4059 0.115,0.1539 0.18,0.2492 0.199,0.2871 0.321,0.4019 0.648,0.7609 0.981,1.0777 1.013,0.9731 1.869,1.6461 2.567,2.0203 l 0.206,0.1479 4.263,1.356 c 3.166,0.886 5.579,1.269 7.241,1.15 0.806,-0.058 1.627,1.201 2.463,3.777 0.777,2.409 1.406,5.422 1.888,9.041 0.501,3.716 0.713,7.142 0.634,10.279 -0.046,1.819 -0.189,3.368 -0.428,4.646 z m 30.242,59.060996 0.045,-0.133 -0.008,-0.096 c -0.012,0.079 -0.025,0.155 -0.037,0.229 z m 1.262,9.137 c 0.462,-0.532 0.682,-0.998 0.663,-1.402 -0.157,0.305 -0.963,0.704 -2.419,1.195 l -2.153,0.649 c 1.642,0.836 2.945,0.688 3.909,-0.442 z m -5.627,-2.478 c 0.108,-0.355 0.224,-0.67 0.347,-0.944 0.206,-0.453 0.815,-1.121 1.829,-2.006 1.1,-0.954 1.661,-1.637 1.68,-2.05 l -0.007,0.007 c -0.675,0.569 -1.435,1.191 -2.279,1.866 -1.772,1.395 -3.662,2.71 -5.671,3.945 -0.605,0.176 -1.414,0.483 -2.425,0.922 l -1.468,0.686 c -0.362,0.016 -0.733,0.038 -1.114,0.067 -1.926,0.147 -3.972,0.422 -6.135,0.825 l -2.655,0.561 c -2.315,-0.289 -4.493,-1.022 -6.533,-2.198 4.49,1.524 7.858,1.529 10.103,0.015 1.426,-0.964 2.202,-2.217 2.33,-3.761 -0.413,0.393 -0.993,0.811 -1.74,1.254 -1.496,0.865 -3.058,1.401 -4.691,1.607 -5.24,0.639 -10.225,-2.198 -14.955,-8.51 -0.531,-0.954 -1.189,-2.192 -1.976,-3.717 -0.173,-0.336 -0.342,-0.673 -0.509,-1.01 -0.218,-0.463 -0.436,-0.948 -0.656,-1.452 -0.62,-1.43 -1.257,-3.015 -1.91,-4.757 -0.333,-0.887 -0.67,-1.814 -1.01,-2.78 -1.75,-4.946 -2.827,-7.866 -3.23,-8.761 -1.662,-3.687 -1.691,-7.226 -0.089,-10.619 0.752,-1.604 1.651,-2.875 2.699,-3.812 0.064,-0.059 0.127,-0.116 0.192,-0.17 l -0.347,0.221 -2.802,1.785 c -0.075,0.087 -0.149,0.17 -0.221,0.251 l -0.243,0.383 0.988,-0.627 0.855,-0.538 c -1.081,0.912 -2.01,2.165 -2.787,3.761 0.014,-0.102 0.029,-0.204 0.044,-0.303 0.022,-0.143 0.046,-0.283 0.073,-0.42 -0.786,1.524 -1.238,3.102 -1.356,4.734 -0.017,0.237 -0.027,0.473 -0.03,0.708 -0.104,1.994 0.314,4.035 1.254,6.121 0.403,0.895 1.48,3.815 3.23,8.761 1.573,4.464 3.058,8.067 4.454,10.811 4.464,8.799 10.162,13.632 17.094,14.498 l 2.654,-0.561 c 2.163,-0.403 4.208,-0.679 6.136,-0.826 6.175,-0.462 10.029,0.442 11.562,2.714 1.593,2.36 3.053,3.726 4.381,4.1 1.285,0.356 2.716,-0.283 4.291,-1.917 -0.106,0.097 -0.212,0.19 -0.316,0.28 -0.405,0.163 -0.806,0.251 -1.202,0.265 h -0.008 c -0.595,0.025 -1.182,-0.118 -1.762,-0.427 -1.101,-0.581 -2.306,-1.839 -3.613,-3.776 -0.867,-1.283 -2.475,-2.131 -4.823,-2.544 0.19,-0.108 0.406,-0.228 0.648,-0.362 0.876,-0.472 1.343,-0.84 1.401,-1.106 0.099,-0.438 0.205,-0.836 0.318,-1.194 z m 7.27,-3.23 c -0.063,0.053 -0.128,0.117 -0.191,0.192 -0.408,0.481 -0.779,1.036 -1.113,1.666 0.884,-0.442 1.725,-1.022 2.521,-1.74 -0.066,-0.067 -0.142,-0.121 -0.228,-0.162 -0.065,-0.029 -0.133,-0.051 -0.206,-0.067 -0.048,-0.01 -0.1,-0.018 -0.156,-0.022 -0.214,-0.013 -0.423,0.031 -0.627,0.133 z m 9.816,4.07 c 1.16,-0.629 2.394,-0.619 3.702,0.03 0.115,0.058 0.227,0.121 0.332,0.192 1.137,0.755 1.746,2.266 1.828,4.535 -0.188,0.38 -0.442,0.741 -0.759,1.084 -0.234,0.249 -0.475,0.446 -0.722,0.59 0.142,0.019 0.295,0.029 0.457,0.029 0.708,0 1.298,-0.186 1.769,-0.56 0.59,-0.462 0.885,-1.146 0.885,-2.05 0,-0.649 -0.078,-1.21 -0.235,-1.681 -0.207,-0.62 -0.576,-1.225 -1.107,-1.815 -0.314,-0.364 -0.954,-0.771 -1.917,-1.223 -0.628,-0.305 -1.169,-0.517 -1.623,-0.635 -0.849,0.278 -1.72,0.778 -2.61,1.504 z m -1.151,-1.18 c -0.372,0.206 -0.731,0.441 -1.076,0.708 -0.095,0.071 -0.188,0.144 -0.28,0.222 -0.016,0.013 -0.033,0.028 -0.052,0.044 -0.143,0.122 -0.296,0.26 -0.457,0.413 -0.513,0.492 -1.159,1.175 -1.939,2.05 -0.49,0.543 -0.94,1.027 -1.35,1.453 -0.435,0.46 -0.801,0.833 -1.099,1.121 -0.027,0.028 -0.054,0.055 -0.081,0.081 -0.029,0.015 -0.056,0.03 -0.082,0.044 0.018,-0.007 0.036,-0.014 0.053,-0.022 0.548,-0.213 1.027,-0.5 1.438,-0.863 0.678,-0.619 1.469,-1.431 2.374,-2.433 1.043,-1.161 1.937,-2.119 2.684,-2.876 -0.043,0.019 -0.088,0.039 -0.133,0.058"
       style="display:inline;fill:#7462b7;fill-opacity:1;fill-rule:evenodd;stroke:none;stroke-width:0.1"
       id="path1989" /><path
       d="m 162.547,101.15207 c -1.613,0.679 -2.675,1.111 -3.186,1.298 -1.701,0.531 -2.91,0.958 -3.628,1.283 -1.219,0.54 -2.07,1.293 -2.552,2.256 -1.199,2.439 -0.565,7.552 1.903,15.339 2.341,7.355 6.534,12.61 12.581,15.766 3.018,1.573 5.806,2.414 8.362,2.522 6.362,-1.74 11.819,-7 16.371,-15.781 2.645,-5.103 3.83,-9.311 3.555,-12.624 -0.128,-1.662 -0.526,-2.813 -1.195,-3.452 -1.072,-0.934 -2.404,-1.981 -3.997,-3.141 -3.176,-2.33 -6.062,-4.08 -8.658,-5.250996 -1.798,-0.816 -3.406,-1.312 -4.822,-1.49 -2.517,-0.314 -5.147,-0.088 -7.891,0.679 -1.523,0.423 -3.805,1.288 -6.843,2.595996"
       style="display:inline;fill:#141213;fill-opacity:1;fill-rule:evenodd;stroke:none;stroke-width:0.1"
       id="path1991" /><path
       d="m 142.1495,109.65407 h -0.007 c -0.006,0.005 -0.0101,0.01 -0.0148,0.015 0.007,-0.005 0.014,-0.01 0.0218,-0.015 z m 1.3645,-1.6 c 0.0168,-0.017 0.0336,-0.034 0.052,-0.052 0.0144,-0.019 0.0293,-0.039 0.0437,-0.059 -0.0316,0.038 -0.0641,0.075 -0.0957,0.111 z m -0.5531,0.848 v -0.007 c -0.004,0.004 -0.009,0.009 -0.0149,0.015 z M 209.565,87.155074 c 3.324,0.118 5.208,-0.701 5.65,-2.455 0.438,-1.753 0.751,-3.137 0.936,-4.152 0.186,-1.016 -0.151,-2.614 -1.011,-4.794 -0.857,-2.177 -1.408,-3.524 -1.651,-4.041 -0.119,-0.045 -0.242,-0.094 -0.369,-0.147 -0.904,-0.384 -1.534,-0.841 -1.888,-1.371 -0.324,-0.502 -0.973,0.063 -1.947,1.696 -0.094,0.154 -0.185,0.302 -0.272,0.443 -0.936,1.545 -1.44,2.332 -1.512,2.359 -0.177,0.069 -0.644,0.727 -1.402,1.976 -0.835,1.417 -1.533,2.792 -2.093,4.13 -1.633,3.933 -1.324,5.826 0.928,5.678 l 1.372,0.31 c 1.131,0.206 2.217,0.329 3.259,0.368 z m -77.3854,13.421996 c 0.1824,1.449 0.6395,2.776 1.3715,3.982 1.6719,2.753 3.4317,4.493 5.2805,5.221 0.7793,0.303 1.5656,0.424 2.3594,0.361 0.0171,-0.053 0.1597,-0.198 0.4281,-0.435 0.2051,-0.287 0.6523,-0.847 1.3418,-1.681 0.5508,-0.649 1.3519,-1.608 2.4043,-2.876 0.0218,-0.027 0.0488,-0.062 0.0808,-0.104 0.944,-1.443 1.458,-2.23 1.541,-2.359 0.011,-0.017 0.023,-0.035 0.037,-0.052 0.156,-0.317 0.261,-0.541 0.317,-0.671 0.216,-0.511 0.492,-1.308 0.826,-2.388996 0.344,-1.112 0.516,-1.77 0.516,-1.976 0,-0.443 -0.172,-0.969 -0.516,-1.579 -0.472,-0.826 -1.087,-1.233 -1.843,-1.224 -0.131,0 -0.24,0.013 -0.325,0.037 0.014,-0.766 -0.5959,-2.42 -1.8287,-4.963 -1.5735,-3.235 -2.886,-4.901 -3.9379,-4.999 -0.3739,-0.04 -0.6832,0.137 -0.9293,0.53 -0.2063,0.305 -0.3243,0.664 -0.3539,1.077 -0.0489,0.747 -0.1082,1.357 -0.177,1.829 -0.0883,0.6 -0.2262,1.219 -0.4129,1.858 -0.1672,0.61 -0.6781,1.505 -1.534,2.684 -0.7472,1.033 -1.2832,1.682 -1.6078,1.947 -0.6484,0.551 -1.2433,1.293 -1.784,2.227 -0.6562,1.121 -1.0742,2.306 -1.2539,3.554996"
       style="display:inline;fill:#100f0d;fill-opacity:1;fill-rule:evenodd;stroke:none;stroke-width:0.1"
       id="path1993" /><path
       d="m 224.155,71.319074 c -0.007,-0.034 -0.015,-0.069 -0.024,-0.105 -0.106,-0.397 -0.543,-1.001 -1.313,-1.809 -0.165,-0.172 -0.309,-0.335 -0.435,-0.49 -14.81,5.504 -35.689,13.951 -62.637,25.34 -24.7496,10.464996 -42.7984,18.680996 -54.148,24.645996 0.9039,1.492 1.4473,2.355 1.6301,2.591 0.006,0.008 0.014,0.018 0.023,0.03 2.3203,-1.231 4.8649,-2.56 7.6356,-3.989 4.282,-2.201 6.8722,-3.475 7.7691,-3.821 10.1066,-5.046 23.4272,-11.153 39.9622,-18.319996 16.533,-7.164 28.788,-12.094 36.766,-14.788 7.719,-2.608 15.976,-5.704 24.771,-9.285 z m 20.31,-10.835 0.237,0.01 c 0.126,-0.096 0.047,-0.099 -0.237,-0.01 z m -37.834,19.492 c -1.1,0.295 -2.212,0.6 -3.339,0.916 -9.358,2.629 -24.986,9.121 -46.885,19.476996 -11.0024,5.206 -21.5571,10.331 -31.6625,15.377 -1.5301,0.583 -6.7602,3.237 -15.6891,7.96 0.1438,0.176 0.2969,0.363 0.459,0.558 l 6.543,-3.423 c 5.1375,-2.667 8.2015,-4.191 9.1929,-4.572 0.2426,-0.098 3.6032,-1.743 10.0801,-4.934 8.0274,-3.953 15.2216,-7.434 21.5826,-10.443 18.268,-8.637996 34.841,-15.609996 49.718,-20.915996"
       style="display:inline;fill:#3f1a23;fill-opacity:1;fill-rule:evenodd;stroke:none;stroke-width:0.1"
       id="path1995" /><path
       d="m 224.155,71.319074 c -8.795,3.581 -17.052,6.677 -24.771,9.285 -7.978,2.694 -20.233,7.624 -36.766,14.788 -16.535,7.166996 -29.8556,13.273996 -39.9622,18.319996 -0.8969,0.346 -3.4871,1.62 -7.7691,3.821 -2.7707,1.429 -5.3153,2.758 -7.6356,3.989 0.1609,0.202 0.7617,0.93 1.8043,2.184 8.9289,-4.723 14.159,-7.377 15.6891,-7.96 10.1054,-5.046 20.6601,-10.171 31.6625,-15.377 21.899,-10.355996 37.527,-16.847996 46.885,-19.476996 1.127,-0.316 2.239,-0.621 3.339,-0.916 6.246,-2.346 12.145,-4.514 17.698,-6.504 0.001,-0.129 0.004,-0.263 0.008,-0.405 0,-0.652 -0.061,-1.235 -0.182,-1.748"
       style="display:inline;fill:#70243c;fill-opacity:1;fill-rule:evenodd;stroke:none;stroke-width:0.1"
       id="path1997" /><path
       d="m 121.2214,113.58507 7.1676,-3.82 c -5.2109,-12.614996 -6.848,-22.628996 -4.9109,-30.042996 1.475,-5.643 4.6652,-10.663 9.5714,-15.058 3.4813,-3.127 7.7239,-5.87 12.7285,-8.23 2.527,-1.199 4.719,-2.09 6.578,-2.67 -0.492,-0.097 -1.151,-0.201 -1.976,-0.309 l -8.85,1.623 -3.2,3.804 -3.348,0.089 -2.7141,3.805 -2.7578,-0.502 -2.4629,5.473 -1.9613,-0.016 -4.2629,12.743 -3.584,4.012 2.3746,6.194 c -1.1012,1.878 -2.2117,3.776 -3.3328,5.694 -2.2613,3.892996 -3.407,5.903996 -3.4367,6.030996 -0.059,0.187 2.7336,3.914 8.3773,11.18"
       style="display:inline;fill:#f0f0f1;fill-opacity:1;fill-rule:evenodd;stroke:none;stroke-width:0.1"
       id="path1999" /><path
       d="m 121.2214,113.58507 c -5.6437,-7.266 -8.4363,-10.993 -8.3773,-11.18 0.0297,-0.127 1.1754,-2.138 3.4367,-6.030996 1.1211,-1.918 2.2316,-3.816 3.3328,-5.694 l -2.3746,-6.194 3.584,-4.012 4.2629,-12.743 1.9613,0.016 2.4629,-5.473 2.7578,0.502 2.7141,-3.805 3.348,-0.089 3.2,-3.804 8.85,-1.623 c -1.829,-0.206 -3.629,-0.276 -5.3988,-0.206 -0.8848,0.048 -1.7598,0.128 -2.625,0.235 -2.4977,0.305 -4.9606,0.895 -7.3891,1.77 -7.7773,2.842 -14.3011,8.633 -19.5715,17.374 -6.489,10.757 -9.7539,21.764 -9.7933,33.021996 -0.0195,3.805 0.3347,7.443 1.0621,10.914 0.2164,1.111 0.4672,2.134 0.7523,3.068 l 0.8703,1.106 12.9344,-7.153"
       style="display:inline;fill:#7c7d7e;fill-opacity:1;fill-rule:evenodd;stroke:none;stroke-width:0.1"
       id="path2001" /><path
       d="m 169.98,118.68807 c 0,-1.603 -0.565,-2.974 -1.696,-4.115 -1.13,-1.131 -2.497,-1.696 -4.1,-1.696 -1.603,0 -2.969,0.565 -4.1,1.696 -1.131,1.141 -1.696,2.512 -1.696,4.115 0,1.602 0.565,2.969 1.696,4.1 1.131,1.131 2.497,1.696 4.1,1.696 1.603,0 2.97,-0.565 4.1,-1.696 1.131,-1.131 1.696,-2.498 1.696,-4.1"
       style="display:inline;fill:#e8e2cf;fill-opacity:1;fill-rule:evenodd;stroke:none;stroke-width:0.1"
       id="path2003" /><path
       d="m 174.685,134.32107 c 5.182,0 9.602,-1.705 13.259,-5.117 3.657,-3.422 5.487,-7.547 5.487,-12.374 0,-4.828 -1.83,-8.953 -5.487,-12.374 -3.657,-3.412 -8.077,-5.117996 -13.259,-5.117996 -5.171,0 -9.591,1.705996 -13.259,5.117996 -3.658,3.421 -5.486,7.546 -5.486,12.374 0,4.827 1.828,8.952 5.486,12.374 3.668,3.412 8.088,5.117 13.259,5.117"
       style="display:inline;fill:#f0f0f1;fill-opacity:1;fill-rule:evenodd;stroke:none;stroke-width:0.1"
       id="path2005" /><path
       d="m 176.071,131.82907 c -3.854,0.571 -7.456,-0.707 -10.803,-3.835 -3.346,-3.127 -6.436,-7.223 -9.269,-12.286 -0.04,0.571 -0.059,1.008 -0.059,1.313 0,4.828 1.828,8.953 5.486,12.375 3.668,3.411 8.088,5.117 13.259,5.117 5.182,0 9.602,-1.706 13.259,-5.117 3.657,-3.422 5.487,-7.547 5.487,-12.375 0,-0.491 -0.02,-0.929 -0.059,-1.313 -1.024,3.215 -3.199,6.563 -6.526,10.045 -3.329,3.48 -6.919,5.506 -10.775,6.076"
       style="display:inline;fill:#7c7d7e;fill-opacity:1;fill-rule:evenodd;stroke:none;stroke-width:0.1"
       id="path2007" /><path
       d="m 164.184,121.25407 c 0,-0.383 -0.133,-0.712 -0.398,-0.988 -0.275,-0.265 -0.6,-0.398 -0.974,-0.398 -0.383,0 -0.707,0.133 -0.973,0.398 -0.265,0.276 -0.398,0.605 -0.398,0.988 0,0.374 0.133,0.698 0.398,0.974 0.266,0.265 0.59,0.398 0.973,0.398 0.374,0 0.699,-0.133 0.974,-0.398 0.265,-0.276 0.398,-0.6 0.398,-0.974"
       style="display:inline;fill:#e8e2cf;fill-opacity:1;fill-rule:evenodd;stroke:none;stroke-width:0.1"
       id="path2009" /><path
       d="m 183.062,124.48407 c 1.603,0 2.97,-0.565 4.101,-1.696 1.13,-1.131 1.695,-2.498 1.695,-4.1 0,-1.603 -0.565,-2.974 -1.695,-4.115 -1.131,-1.131 -2.498,-1.696 -4.101,-1.696 -1.602,0 -2.969,0.565 -4.1,1.696 -1.13,1.141 -1.696,2.512 -1.696,4.115 0,1.602 0.566,2.969 1.696,4.1 1.131,1.131 2.498,1.696 4.1,1.696 z m 0,-4.424 c 0.384,0 0.713,-0.133 0.989,-0.399 0.265,-0.275 0.398,-0.599 0.398,-0.973 0,-0.384 -0.133,-0.713 -0.398,-0.988 -0.276,-0.266 -0.605,-0.399 -0.989,-0.399 -0.374,0 -0.698,0.133 -0.973,0.399 -0.266,0.275 -0.399,0.604 -0.399,0.988 0,0.374 0.133,0.698 0.399,0.973 0.275,0.266 0.599,0.399 0.973,0.399 z m -2.728,0.965 c -0.58,-0.667 -0.87,-1.446 -0.87,-2.337 0,-0.993 0.353,-1.844 1.061,-2.552 0.698,-0.697 1.544,-1.047 2.537,-1.047 0.994,0 1.844,0.35 2.552,1.047 0.698,0.708 1.047,1.559 1.047,2.552 0,0.993 -0.349,1.839 -1.047,2.537 -0.708,0.708 -1.558,1.062 -2.552,1.062 -0.148,0 -0.293,-0.007 -0.434,-0.022 -0.268,0.24 -0.58,0.361 -0.938,0.361 -0.383,0 -0.707,-0.133 -0.972,-0.398 -0.266,-0.276 -0.399,-0.6 -0.399,-0.974 0,-0.079 0.005,-0.155 0.015,-0.229"
       style="display:inline;fill:#2a1512;fill-opacity:1;fill-rule:evenodd;stroke:none;stroke-width:0.1"
       id="path2011" /><path
       d="m 183.062,120.06007 c -0.374,0 -0.698,-0.133 -0.973,-0.399 -0.266,-0.275 -0.399,-0.599 -0.399,-0.973 0,-0.384 0.133,-0.713 0.399,-0.988 0.275,-0.266 0.599,-0.399 0.973,-0.399 0.384,0 0.713,0.133 0.989,0.399 0.265,0.275 0.398,0.604 0.398,0.988 0,0.374 -0.133,0.698 -0.398,0.973 -0.276,0.266 -0.605,0.399 -0.989,0.399 z m -1.946,-0.074 c 0.173,-0.079 0.365,-0.118 0.574,-0.118 0.374,0 0.699,0.133 0.974,0.398 0.213,0.221 0.341,0.477 0.384,0.767 h 0.014 c 0.65,0 1.204,-0.231 1.667,-0.693 0.452,-0.462 0.678,-1.013 0.678,-1.652 0,-0.649 -0.226,-1.205 -0.678,-1.667 -0.463,-0.452 -1.017,-0.678 -1.667,-0.678 -0.649,0 -1.199,0.226 -1.651,0.678 -0.463,0.462 -0.693,1.018 -0.693,1.667 0,0.483 0.132,0.916 0.398,1.298"
       style="display:inline;fill:#b11d23;fill-opacity:1;fill-rule:evenodd;stroke:none;stroke-width:0.1"
       id="path2013" /><path
       d="m 180.334,121.02507 c -0.01,0.074 -0.015,0.15 -0.015,0.229 0,0.374 0.133,0.698 0.399,0.974 0.265,0.265 0.589,0.398 0.972,0.398 0.358,0 0.67,-0.121 0.938,-0.361 0.011,-0.013 0.024,-0.026 0.036,-0.037 0.266,-0.276 0.398,-0.6 0.398,-0.974 0,-0.076 -0.005,-0.149 -0.014,-0.221 -0.043,-0.29 -0.171,-0.546 -0.384,-0.767 -0.275,-0.265 -0.6,-0.398 -0.974,-0.398 -0.209,0 -0.401,0.039 -0.574,0.118 -0.145,0.066 -0.278,0.16 -0.398,0.28 -0.211,0.219 -0.339,0.471 -0.384,0.759"
       style="display:inline;fill:#e8e2cf;fill-opacity:1;fill-rule:evenodd;stroke:none;stroke-width:0.1"
       id="path2015" /><path
       d="m 182.628,122.26507 c 0.141,0.015 0.286,0.022 0.434,0.022 0.994,0 1.844,-0.354 2.552,-1.062 0.698,-0.698 1.047,-1.544 1.047,-2.537 0,-0.993 -0.349,-1.844 -1.047,-2.552 -0.708,-0.697 -1.558,-1.047 -2.552,-1.047 -0.993,0 -1.839,0.35 -2.537,1.047 -0.708,0.708 -1.061,1.559 -1.061,2.552 0,0.891 0.29,1.67 0.87,2.337 0.045,-0.288 0.173,-0.54 0.384,-0.759 0.12,-0.12 0.253,-0.214 0.398,-0.28 -0.266,-0.382 -0.398,-0.815 -0.398,-1.298 0,-0.649 0.23,-1.205 0.693,-1.667 0.452,-0.452 1.002,-0.678 1.651,-0.678 0.65,0 1.204,0.226 1.667,0.678 0.452,0.462 0.678,1.018 0.678,1.667 0,0.639 -0.226,1.19 -0.678,1.652 -0.463,0.462 -1.017,0.693 -1.667,0.693 h -0.014 c 0.009,0.072 0.014,0.145 0.014,0.221 0,0.374 -0.132,0.698 -0.398,0.974 -0.012,0.011 -0.025,0.024 -0.036,0.037"
       style="display:inline;fill:#ba931c;fill-opacity:1;fill-rule:evenodd;stroke:none;stroke-width:0.1"
       id="path2017" /><path
       d="m 158.816,111.34307 2.89,-1.475 c 2.439,-1.081 4.936,-1.878 7.493,-2.389 8.19,-1.642 15.441,-0.128 21.754,4.543 -0.256,-1.505 -1.062,-2.999 -2.419,-4.484 -2.714,-2.969 -6.818,-4.415 -12.315,-4.336 -5.487,0.069 -10.034,1.446 -13.642,4.13 -1.122,0.845 -2.085,1.764 -2.891,2.757 l -0.87,1.254"
       style="display:inline;fill:#141213;fill-opacity:1;fill-rule:evenodd;stroke:none;stroke-width:0.1"
       id="path2019" /><path
       d="m 160.202,108.39407 2.684,0.973 1.018,-2.935 2.979,1.18 1.667,-3.127 3.156,2.448 3.185,-3.731 2.995,3.776 3.097,-3.378 1.637,4.012 3.422,-2.11 0.501,3.865 2.655,-1.003"
       style="display:inline;fill:none;stroke:#ffffff;stroke-width:1;stroke-linecap:butt;stroke-linejoin:miter;stroke-miterlimit:10;stroke-dasharray:none;stroke-opacity:1"
       id="path2021" /><path
       d="m 206.564,82.723074 c 0.901,0.418 1.734,0.627 2.5,0.627 2.084,0 3.667,-0.54 4.749,-1.622 0.934,-0.934 1.402,-2.139 1.402,-3.613 0,-1.476 -0.616,-2.876 -1.844,-4.204 -1.039,-1.128 -2.015,-1.738 -2.928,-1.828 -0.057,0.015 -0.114,0.036 -0.17,0.058 -0.295,0.118 -0.442,0.29 -0.442,0.517 0,0.256 0.309,0.703 0.93,1.342 0.609,0.639 0.914,1.174 0.914,1.607 0,0.049 -0.003,0.096 -0.008,0.141 -0.329,-0.639 -0.809,-1.187 -1.438,-1.645 -0.557,-0.408 -1.157,-0.681 -1.799,-0.818 -0.333,-0.074 -0.677,-0.112 -1.033,-0.112 -0.208,0 -0.402,0.018 -0.582,0.052 -0.054,0.126 -0.081,0.266 -0.081,0.421 0,0.501 0.393,1.12 1.18,1.858 0.711,0.659 1.102,1.179 1.172,1.563 -0.192,-0.442 -0.524,-0.875 -0.995,-1.298 -0.739,-0.655 -1.582,-1.002 -2.53,-1.039 -0.06,-0.005 -0.122,-0.008 -0.184,-0.008 -0.541,0 -0.998,0.094 -1.371,0.28 -0.143,0.077 -0.264,0.163 -0.362,0.258 0.228,0.77 0.914,1.706 2.057,2.811 0.702,0.681 1.23,1.237 1.586,1.666 0.369,0.439 0.553,0.744 0.553,0.914 0,0.629 -0.078,1.067 -0.236,1.313 -0.179,0.273 -0.526,0.526 -1.04,0.759"
       style="display:inline;fill:#f0f0f1;fill-opacity:1;fill-rule:evenodd;stroke:none;stroke-width:0.1"
       id="path2023" /><path
       d="m 206.564,82.723074 c 0.514,-0.233 0.861,-0.486 1.04,-0.759 0.158,-0.246 0.236,-0.684 0.236,-1.313 0,-0.17 -0.184,-0.475 -0.553,-0.914 -0.356,-0.429 -0.884,-0.985 -1.586,-1.666 -1.143,-1.105 -1.829,-2.041 -2.057,-2.811 -0.202,0.204 -0.302,0.452 -0.302,0.745 0,0.374 0.241,0.792 0.722,1.254 0.266,0.256 0.639,0.566 1.121,0.929 0.443,0.384 0.787,0.737 1.033,1.063 0.158,0.206 0.298,0.427 0.42,0.663 -0.474,0.139 -0.993,0.316 -1.556,0.531 -0.495,0.191 -0.876,0.344 -1.143,0.457 0.296,0.416 0.899,0.883 1.807,1.401 0.278,0.159 0.551,0.3 0.818,0.42 z m 1.866,-9.438 c 0.642,0.137 1.242,0.41 1.799,0.818 0.629,0.458 1.109,1.006 1.438,1.645 0.005,-0.045 0.008,-0.092 0.008,-0.141 0,-0.433 -0.305,-0.968 -0.914,-1.607 -0.621,-0.639 -0.93,-1.086 -0.93,-1.342 0,-0.227 0.147,-0.399 0.442,-0.517 0.056,-0.022 0.113,-0.043 0.17,-0.058 -0.082,-0.01 -0.163,-0.015 -0.243,-0.015 -0.688,0 -1.175,0.167 -1.46,0.501 -0.143,0.174 -0.247,0.412 -0.31,0.716 z m -1.615,-0.06 c -0.323,0.07 -0.596,0.2 -0.819,0.391 -0.295,0.256 -0.442,0.575 -0.442,0.959 0,0.048 0.002,0.099 0.007,0.155 0.948,0.037 1.791,0.384 2.53,1.039 0.471,0.423 0.803,0.856 0.995,1.298 -0.07,-0.384 -0.461,-0.904 -1.172,-1.563 -0.787,-0.738 -1.18,-1.357 -1.18,-1.858 0,-0.155 0.027,-0.295 0.081,-0.421"
       style="display:inline;fill:#7c7d7e;fill-opacity:1;fill-rule:evenodd;stroke:none;stroke-width:0.1"
       id="path2025" /><path
       d="m 139.866,109.49507 c -0.2469,0.076 -0.5,0.055 -0.7586,-0.064 -0.0465,-0.017 -0.0954,-0.041 -0.1461,-0.071 -0.3621,-0.221 -0.6348,-0.72 -0.818,-1.499 -0.0898,-0.414 -0.1652,-0.956 -0.2273,-1.624 -0.1114,-0.635 -0.2559,-1.16 -0.4329,-1.576 -0.1007,-0.26 -0.2226,-0.512 -0.364,-0.756 -1.1172,0.578 -1.9906,1.053 -2.6215,1.424 -0.0699,-0.394 -0.0828,-1.007 -0.0383,-1.839 0.0356,-0.336 0.0738,-0.655 0.1149,-0.957 0.4945,-0.353 0.907,-0.531 1.2378,-0.533 0.3075,-0.021 0.7415,0.131 1.3032,0.46 0.1621,0.071 0.3347,0.385 0.5187,0.941 0.1938,0.56 0.4207,1.359 0.6813,2.399 0.3976,1.758 0.914,2.99 1.5508,3.695 z m 3.7753,-2.052 c -0.2527,0.286 -0.5316,0.493 -0.8375,0.621 -0.4199,0.138 -0.8226,0.097 -1.2074,-0.122 -0.0465,-0.039 -0.0953,-0.073 -0.1465,-0.103 0.475,-0.974 0.5868,-1.99 0.3344,-3.048 -0.1629,-0.685 -0.4066,-1.232 -0.7305,-1.64 0.3258,0.271 0.6219,0.922 0.8875,1.953 0.309,1.164 0.7137,1.894 1.2153,2.188 0.1621,0.093 0.3238,0.144 0.4847,0.151 z m 0.7512,-1.605 c 0.1953,-0.699 0.2215,-1.424 0.0805,-2.175 -0.1383,-0.825 -0.4215,-1.545 -0.8496,-2.161 0.0371,0.014 0.0742,0.038 0.1113,0.073 0.4125,0.209 0.7797,0.76 1.1031,1.654 0.3188,0.924 0.6078,1.456 0.8672,1.596 0.223,0.127 0.463,0.074 0.721,-0.156 0.05,-0.034 0.102,-0.073 0.156,-0.116 -0.03,0.084 -0.066,0.166 -0.106,0.246 -0.328,0.659 -0.735,1.034 -1.221,1.126 -0.2515,0.043 -0.5394,0.014 -0.8625,-0.087"
       style="display:inline;fill:#7c7d7e;fill-opacity:1;fill-rule:evenodd;stroke:none;stroke-width:0.1"
       id="path2027" /><path
       d="m 144.3925,105.83807 c -0.1043,0.363 -0.243,0.718 -0.416,1.065 -0.102,0.205 -0.2141,0.385 -0.3352,0.54 -0.1609,-0.007 -0.3226,-0.058 -0.4847,-0.151 -0.5016,-0.294 -0.9063,-1.024 -1.2153,-2.188 -0.2656,-1.031 -0.5617,-1.682 -0.8875,-1.953 0.3239,0.408 0.5676,0.955 0.7305,1.64 0.2524,1.058 0.1406,2.074 -0.3344,3.048 -0.0261,0.075 -0.0593,0.142 -0.0996,0.2 -0.2851,0.549 -0.6293,0.963 -1.0332,1.245 -0.1547,0.09 -0.3051,0.16 -0.4511,0.211 -0.6368,-0.705 -1.1532,-1.937 -1.5508,-3.695 -0.2606,-1.04 -0.4875,-1.839 -0.6813,-2.399 -0.184,-0.556 -0.3566,-0.87 -0.5187,-0.941 -0.5617,-0.329 -0.9957,-0.481 -1.3032,-0.46 -0.3308,0.002 -0.7433,0.18 -1.2378,0.533 0.1195,-0.79 0.3171,-1.472 0.5921,-2.046 0.0895,-0.157 0.1739,-0.304 0.2543,-0.443 1.1055,-1.709996 2.3872,-2.759996 3.8461,-3.151996 1.0563,-0.268 2.1207,-0.2 3.1938,0.204 0.2215,0.084 0.4418,0.182 0.6594,0.296 1.3433,0.676 2.355,1.851 3.0361,3.524996 0.627,1.517 0.77,2.729 0.426,3.636 -0.054,0.043 -0.106,0.082 -0.156,0.116 -0.258,0.23 -0.498,0.283 -0.721,0.156 -0.2594,-0.14 -0.5484,-0.672 -0.8672,-1.596 -0.3234,-0.894 -0.6906,-1.445 -1.1031,-1.654 -0.0371,-0.035 -0.0742,-0.059 -0.1113,-0.073 0.4281,0.616 0.7113,1.336 0.8496,2.161 0.141,0.751 0.1148,1.476 -0.0805,2.175"
       style="display:inline;fill:#f0f0f1;fill-opacity:1;fill-rule:evenodd;stroke:none;stroke-width:0.1"
       id="path2029" /><path
       d="m 168.682,111.93207 c -1.517,0.611 -2.969,1.317 -4.354,2.116 -1.387,0.809 -2.288,1.988 -2.703,3.535 -0.414,1.549 -0.222,3.015 0.577,4.4 0.8,1.385 1.907,2.725 3.321,4.02 1.682,-0.466 3.216,-1.098 4.6,-1.898 1.385,-0.799 2.285,-1.973 2.7,-3.521 0.414,-1.548 0.224,-3.019 -0.574,-4.413 -0.799,-1.385 -1.988,-2.798 -3.567,-4.239 z m -0.755,8.348 c 0.327,-0.197 0.54,-0.477 0.636,-0.838 0.099,-0.37 0.056,-0.723 -0.129,-1.057 -0.197,-0.328 -0.481,-0.541 -0.851,-0.64 -0.361,-0.097 -0.709,-0.053 -1.044,0.133 -0.327,0.197 -0.541,0.48 -0.64,0.851 -0.096,0.361 -0.052,0.709 0.133,1.043 0.197,0.328 0.476,0.54 0.837,0.637 0.371,0.099 0.723,0.056 1.058,-0.129 z m -2.04,2.141 c -0.33,0.166 -0.665,0.203 -1.007,0.112 -0.37,-0.1 -0.65,-0.312 -0.837,-0.637 -0.185,-0.335 -0.23,-0.682 -0.133,-1.043 0.021,-0.077 0.046,-0.151 0.076,-0.225 -0.39,-0.786 -0.47,-1.611 -0.238,-2.475 0.257,-0.959 0.819,-1.689 1.686,-2.191 0.855,-0.493 1.762,-0.611 2.722,-0.354 0.959,0.257 1.69,0.814 2.192,1.672 0.492,0.864 0.609,1.776 0.352,2.735 -0.257,0.959 -0.812,1.686 -1.668,2.179 -0.867,0.501 -1.78,0.623 -2.739,0.366 -0.143,-0.039 -0.278,-0.085 -0.406,-0.139"
       style="display:inline;fill:#2a1512;fill-opacity:1;fill-rule:evenodd;stroke:none;stroke-width:0.1"
       id="path2031" /><path
       d="m 163.986,120.62807 c -0.03,0.074 -0.055,0.148 -0.076,0.225 -0.097,0.361 -0.052,0.708 0.133,1.043 0.187,0.325 0.467,0.537 0.837,0.637 0.342,0.091 0.677,0.054 1.007,-0.112 0.012,-0.007 0.024,-0.014 0.036,-0.021 0.328,-0.197 0.54,-0.477 0.637,-0.837 0.02,-0.076 0.035,-0.149 0.043,-0.218 0.038,-0.295 -0.019,-0.575 -0.172,-0.84 -0.197,-0.328 -0.476,-0.54 -0.837,-0.636 -0.2,-0.054 -0.395,-0.066 -0.586,-0.036 -0.161,0.029 -0.313,0.084 -0.457,0.168 -0.256,0.156 -0.444,0.365 -0.565,0.627"
       style="display:inline;fill:#e8e2cf;fill-opacity:1;fill-rule:evenodd;stroke:none;stroke-width:0.1"
       id="path2033" /><path
       d="m 165.887,122.42107 c 0.128,0.054 0.263,0.1 0.406,0.139 0.959,0.257 1.872,0.135 2.739,-0.366 0.856,-0.493 1.411,-1.22 1.668,-2.179 0.257,-0.959 0.14,-1.871 -0.352,-2.735 -0.502,-0.858 -1.233,-1.415 -2.192,-1.672 -0.96,-0.257 -1.867,-0.139 -2.722,0.354 -0.867,0.502 -1.429,1.232 -1.686,2.191 -0.232,0.864 -0.152,1.689 0.238,2.475 0.121,-0.262 0.309,-0.471 0.565,-0.627 0.144,-0.084 0.296,-0.139 0.457,-0.168 -0.158,-0.438 -0.174,-0.891 -0.049,-1.356 0.168,-0.627 0.535,-1.104 1.101,-1.431 0.554,-0.319 1.144,-0.395 1.771,-0.227 0.627,0.168 1.105,0.53 1.434,1.086 0.317,0.564 0.392,1.159 0.224,1.785 -0.165,0.618 -0.526,1.091 -1.083,1.421 -0.565,0.327 -1.162,0.406 -1.788,0.238 l -0.015,-0.004 c -0.008,0.069 -0.023,0.142 -0.043,0.218 -0.097,0.36 -0.309,0.64 -0.637,0.837 -0.012,0.007 -0.024,0.014 -0.036,0.021"
       style="display:inline;fill:#ba931c;fill-opacity:1;fill-rule:evenodd;stroke:none;stroke-width:0.1"
       id="path2035" /><path
       d="m 167.927,120.28007 c -0.335,0.185 -0.687,0.228 -1.058,0.129 -0.361,-0.097 -0.64,-0.309 -0.837,-0.637 -0.185,-0.334 -0.229,-0.682 -0.133,-1.043 0.099,-0.371 0.313,-0.654 0.64,-0.851 0.335,-0.186 0.683,-0.23 1.044,-0.133 0.37,0.099 0.654,0.312 0.851,0.64 0.185,0.334 0.228,0.687 0.129,1.057 -0.096,0.361 -0.309,0.641 -0.636,0.838 z m -2.919,-0.447 c 0.191,-0.03 0.386,-0.018 0.586,0.036 0.361,0.096 0.64,0.308 0.837,0.636 0.153,0.265 0.21,0.545 0.172,0.84 l 0.015,0.004 c 0.626,0.168 1.223,0.089 1.788,-0.238 0.557,-0.33 0.918,-0.803 1.083,-1.421 0.168,-0.626 0.093,-1.221 -0.224,-1.785 -0.329,-0.556 -0.807,-0.918 -1.434,-1.086 -0.627,-0.168 -1.217,-0.092 -1.771,0.227 -0.566,0.327 -0.933,0.804 -1.101,1.431 -0.125,0.465 -0.109,0.918 0.049,1.356"
       style="display:inline;fill:#b11d23;fill-opacity:1;fill-rule:evenodd;stroke:none;stroke-width:0.1"
       id="path2037" /></g><g
     inkscape:groupmode="layer"
     id="layer1"
     inkscape:label="ink_ext_XXXXXX 1"
     style="display:none"><path
       d="M 594.74026,-69.492378 H 257.91253 V 283.06495 H 594.74026 V -69.492378"
       style="display:inline;fill:url(#radialGradient1125);fill-opacity:1;fill-rule:evenodd;stroke:none;stroke-width:0.133333"
       id="path1127" /></g></svg>
